<?xml version="1.0" encoding="UTF-8" standalone="no" ?>
<!DOCTYPE svg PUBLIC "-//W3C//DTD SVG 1.1//EN" "http://www.w3.org/Graphics/SVG/1.1/DTD/svg11.dtd">
<svg xmlns="http://www.w3.org/2000/svg" xmlns:xlink="http://www.w3.org/1999/xlink" version="1.1" width="1280" height="1024" viewBox="0 0 1280 1024" xml:space="preserve">
<desc>Created with Fabric.js 4.4.0</desc>
<defs>
</defs>
<g transform="matrix(1 0 0 1 640 512)" id="background-logo"  >
<rect style="stroke: none; stroke-width: 0; stroke-dasharray: none; stroke-linecap: butt; stroke-dashoffset: 0; stroke-linejoin: miter; stroke-miterlimit: 4; fill: rgb(255,255,255); fill-opacity: 0; fill-rule: nonzero; opacity: 1;"  paint-order="stroke"  x="-640" y="-512" rx="0" ry="0" width="1280" height="1024" />
</g>
<g transform="matrix(3.63859792662188 0 0 3.63859792662188 640.7217095630731 512.1154735300918)" id="logo-logo"  >
<g style=""  paint-order="stroke"   >
		<g transform="matrix(1.356727075202541 0 0 -1.356727075202541 0 2.842171e-14)"  >
<linearGradient id="SVGID_2_393541" gradientUnits="userSpaceOnUse" gradientTransform="matrix(1 0 0 1 -135.902 -57.74600000000001)"  x1="0" y1="0" x2="0" y2="40">
<stop offset="0%" style="stop-color:rgb(48,35,174);stop-opacity: 1"/>
<stop offset="100%" style="stop-color:rgb(200,109,215);stop-opacity: 1"/>
</linearGradient>
<path style="stroke: none; stroke-width: 1; stroke-dasharray: none; stroke-linecap: butt; stroke-dashoffset: 0; stroke-linejoin: miter; stroke-miterlimit: 4; fill: url(#SVGID_2_393541); fill-rule: nonzero; opacity: 1;"  paint-order="stroke"  transform=" translate(66.20549999999999, -10.53349999999999)" d="M 0 0 C -0.308 -0.018 -0.602 -0.077 -0.881 -0.173 L -7.245 11.952 C -6.337 12.605 -5.74 13.665 -5.74 14.868 C -5.74 16.334 -6.619 17.59 -7.876 18.151 L -5.65 25.895 C -5.221 25.805 -4.777 25.756 -4.321000000000001 25.756 C -3.3530000000000006 25.756 -2.439000000000001 25.976 -1.6160000000000005 26.358 C -0.138 20.9 0.665 15.167 0.665 9.247 C 0.665 6.107 0.429 3.023 0 0 M -3.595 -13.965 C -4.056 -13.743 -4.566 -13.61 -5.11 -13.605 L -6.269 -4.747 L -2.954 -4.255 C -2.678 -5.148 -2.043 -5.878 -1.207 -6.269 C -1.848 -8.9 -2.646 -11.468 -3.5949999999999998 -13.965 M -9.187999999999999 -5.18 L -7.258999999999999 -4.894 L -6.192999999999999 -13.043 z M -10.646999999999998 -27.519 C -10.979999999999999 -27.430999999999997 -11.322 -27.368 -11.681999999999999 -27.368 C -11.905 -27.368 -12.118999999999998 -27.398999999999997 -12.331999999999999 -27.433999999999997 L -13.999999999999998 -21.784999999999997 L -8.174 -19.130999999999997 C -7.779 -19.750999999999998 -7.204 -20.242999999999995 -6.518 -20.526999999999997 C -7.757 -22.945999999999998 -9.128 -25.284999999999997 -10.646999999999998 -27.519 M -14.755999999999998 -28.819999999999997 L -20.83 -24.895999999999997 L -14.918999999999999 -22.202999999999996 L -13.293999999999999 -27.707999999999995 C -13.866999999999999 -27.958999999999996 -14.358999999999998 -28.346999999999994 -14.755999999999998 -28.819999999999993 M -17.679 -36.16 L -24.186 -42.05799999999999 C -24.625 -41.672999999999995 -25.137999999999998 -41.38099999999999 -25.705 -41.19599999999999 L -22.573999999999998 -25.68999999999999 L -21.910999999999998 -25.38799999999999 L -15.302999999999997 -29.65699999999999 C -15.558999999999997 -30.18599999999999 -15.714999999999998 -30.77299999999999 -15.714999999999998 -31.40099999999999 C -15.714999999999998 -32.130999999999986 -15.504999999999997 -32.80599999999999 -15.165999999999999 -33.39699999999999 C -15.977999999999998 -34.34199999999999 -16.814999999999998 -35.26299999999999 -17.679 -36.15999999999999 M -26.944 -40.97299999999999 L -28.104 -28.208999999999993 L -23.697 -26.20199999999999 L -26.686 -40.998999999999995 C -26.773 -40.992 -26.856 -40.97599999999999 -26.944 -40.97299999999999 M -29.558999999999997 -41.76399999999999 L -35.022999999999996 -35.64099999999999 L -32.95099999999999 -30.41699999999999 L -29.067999999999994 -28.647999999999993 L -27.939999999999994 -41.053999999999995 C -28.534999999999993 -41.178 -29.079999999999995 -41.425999999999995 -29.558999999999994 -41.763999999999996 M -31.415999999999993 -45.327999999999996 C -31.415999999999993 -45.876999999999995 -31.302999999999994 -46.397 -31.117999999999995 -46.88099999999999 L -38.72599999999999 -50.837999999999994 C -38.83399999999999 -50.885999999999996 -38.93899999999999 -50.937999999999995 -39.047999999999995 -50.983999999999995 C -39.43599999999999 -50.41799999999999 -39.964999999999996 -49.96399999999999 -40.571999999999996 -49.635999999999996 L -35.434999999999995 -36.681 L -30.298999999999996 -42.437999999999995 C -30.985999999999997 -43.208999999999996 -31.415999999999997 -44.214 -31.415999999999997 -45.327999999999996 M -42 -49.164 L -41.609 -34.361000000000004 L -38.691 -33.032000000000004 L -36.18 -35.847 L -41.501 -49.264 C -41.663999999999994 -49.221000000000004 -41.83 -49.188 -42 -49.164 M -42.593 -33.71 L -57.281000000000006 -40.401 C -57.29200000000001 -40.383 -57.300000000000004 -40.364000000000004 -57.31100000000001 -40.347 L -44.61200000000001 -31.158 C -44.07300000000001 -31.722 -43.35800000000001 -32.107 -42.55400000000001 -32.239000000000004 z M -43 -49.141 C -44.304 -49.259 -45.443 -49.937999999999995 -46.153 -50.955 L -56.971 -45.146 C -56.699999999999996 -44.505 -56.55 -43.8 -56.55 -43.06 C -56.55 -42.444 -56.675 -41.861000000000004 -56.866 -41.31 L -42.622 -34.822 z M -46.863 -52.717999999999996 L -72.893 -51.456999999999994 C -72.928 -51.07999999999999 -73.003 -50.714999999999996 -73.145 -50.379999999999995 L -66.22099999999999 -46.227 C -65.24499999999999 -47.553 -63.68599999999999 -48.422999999999995 -61.91299999999999 -48.422999999999995 C -60.04799999999999 -48.422999999999995 -58.40799999999999 -47.46999999999999 -57.44699999999999 -46.02499999999999 L -46.624999999999986 -51.83699999999999 C -46.73599999999998 -52.11699999999999 -46.81299999999999 -52.41199999999999 -46.862999999999985 -52.71799999999999 M -64.88299999999998 -56.29999999999999 C -68.67199999999998 -56.29999999999999 -72.37999999999998 -55.95899999999999 -75.99399999999999 -55.33899999999999 C -74.44499999999998 -55.13599999999999 -73.20699999999998 -53.96399999999999 -72.92599999999999 -52.44099999999999 L -46.90599999999999 -53.71399999999999 C -46.90399999999999 -53.73299999999999 -46.90099999999999 -53.75199999999999 -46.89999999999999 -53.770999999999994 C -52.617999999999995 -55.40599999999999 -58.64699999999999 -56.3 -64.883 -56.3 M -77.607 -48.39 L -81.334 -40.975 L -67.255 -42.852000000000004 C -67.258 -42.923 -67.276 -42.989000000000004 -67.276 -43.06 C -67.276 -43.891000000000005 -67.072 -44.667 -66.735 -45.369 L -73.674 -49.531 C -74.334 -48.717 -75.33000000000001 -48.186 -76.46000000000001 -48.186 C -76.864 -48.186 -77.245 -48.267 -77.60700000000001 -48.39 M -109.18700000000001 -39.009 L -97.409 -44.972 C -97.46100000000001 -45.17 -97.498 -45.373000000000005 -97.498 -45.587 C -97.498 -46.914 -96.423 -47.989000000000004 -95.09700000000001 -47.989000000000004 C -94.21600000000001 -47.989000000000004 -93.453 -47.50900000000001 -93.036 -46.801 L -79.995 -51.137 C -80.033 -51.348 -80.06 -51.563 -80.06 -51.786 C -80.06 -53.163000000000004 -79.278 -54.346000000000004 -78.141 -54.951 C -89.958 -52.514 -100.61800000000001 -46.883 -109.18700000000001 -39.009 M -110.72500000000001 -37.057 L -100.465 -38.425000000000004 L -96.813 -43.912000000000006 C -96.866 -43.965 -96.909 -44.02700000000001 -96.956 -44.08500000000001 L -110.739 -37.10200000000001 C -110.735 -37.08700000000001 -110.73 -37.07200000000001 -110.72500000000001 -37.05700000000001 M -112.69300000000001 -33.20100000000001 L -111.287 -25.162000000000006 C -111.24000000000001 -25.164000000000005 -111.19600000000001 -25.176000000000005 -111.149 -25.176000000000005 C -110.568 -25.176000000000005 -110.026 -25.031000000000006 -109.537 -24.793000000000006 L -104.35300000000001 -32.583000000000006 L -110.938 -34.72500000000001 C -111.304 -34.01400000000001 -111.928 -33.46600000000001 -112.693 -33.20100000000001 M -113.717 -33.01500000000001 C -113.91799999999999 -33.01500000000001 -114.113 -33.03900000000001 -114.303 -33.07500000000001 L -120.349 -16.40700000000001 L -114.536 -19.97700000000001 C -114.738 -20.43400000000001 -114.855 -20.93800000000001 -114.855 -21.47000000000001 C -114.855 -23.123000000000008 -113.765 -24.50600000000001 -112.271 -24.98400000000001 L -113.676 -33.02000000000001 C -113.69 -33.01900000000001 -113.703 -33.01500000000001 -113.717 -33.01500000000001 M -126.219 -13.84200000000001 C -126.386 -13.39900000000001 -126.547 -12.952000000000009 -126.705 -12.50500000000001 L -121.717 -15.567000000000009 L -116.053 -31.18100000000001 z M -125.264 -5.788000000000009 L -124.28099999999999 -8.49900000000001 L -126.61399999999999 -9.420000000000009 C -126.73199999999999 -9.24300000000001 -126.877 -9.090000000000009 -127.035 -8.950000000000008 z M -127.90899999999999 -8.463000000000008 C -127.934 -8.455000000000009 -127.96 -8.446000000000009 -127.98599999999999 -8.439000000000009 C -128.11399999999998 -7.982000000000009 -128.255 -7.530000000000009 -128.373 -7.070000000000009 L -129.07899999999998 2.887999999999991 C -128.86799999999997 2.920999999999991 -128.66199999999998 2.963999999999991 -128.45899999999997 3.017999999999991 L -125.71499999999997 -4.545000000000009 z M -129.995 14.624999999999993 C -130.061 14.624999999999993 -130.126 14.616999999999994 -130.192 14.614999999999993 C -129.805 19.356999999999992 -128.924 23.96099999999999 -127.578 28.365999999999993 C -127.299 28.305999999999994 -127.012 28.269999999999992 -126.715 28.269999999999992 C -126.47500000000001 28.269999999999992 -126.244 28.30099999999999 -126.016 28.339999999999993 L -121.647 14.588999999999993 L -125.292 12.282999999999994 C -126.371 13.703999999999994 -128.073 14.624999999999995 -129.995 14.624999999999995 M -130.11100000000002 2.814999999999994 C -130.10000000000002 2.814999999999994 -130.08800000000002 2.8139999999999943 -130.07700000000003 2.8139999999999943 L -130.01900000000003 1.9869999999999943 C -130.04900000000004 2.2629999999999946 -130.08400000000003 2.5379999999999945 -130.11100000000005 2.814999999999994 M -123.83300000000004 29.472999999999995 L -117.30900000000004 24.720999999999997 C -118.03800000000004 23.566999999999997 -118.46600000000004 22.203999999999997 -118.46600000000004 20.736999999999995 C -118.46600000000004 19.445999999999994 -118.13900000000004 18.230999999999995 -117.56300000000003 17.171999999999993 L -120.77300000000002 15.140999999999993 L -125.05900000000003 28.629999999999995 C -124.59900000000003 28.835999999999995 -124.18300000000002 29.119999999999994 -123.83300000000003 29.472999999999995 M -114.98100000000002 51.45099999999999 L -113.18900000000002 35.675999999999995 L -122.86300000000003 33.547999999999995 C -123.17900000000003 34.544999999999995 -123.86100000000003 35.36599999999999 -124.76000000000003 35.864999999999995 C -122.23300000000003 41.52799999999999 -118.93100000000004 46.76899999999999 -114.98100000000004 51.45099999999999 M -113.02200000000003 52.083999999999996 L -104.01100000000004 40.628 C -104.71100000000004 39.893 -105.14600000000004 38.905 -105.14600000000004 37.81 C -105.14600000000004 37.688 -105.12100000000004 37.573 -105.11000000000004 37.453 L -112.20700000000004 35.892 L -114.00100000000003 51.679 C -113.65200000000003 51.767 -113.32500000000003 51.905 -113.02200000000003 52.084 M -111.26200000000003 54.49 L -99.99600000000002 53.543 C -99.95700000000002 51.717999999999996 -98.89300000000003 50.159 -97.35700000000003 49.39 L -100.19000000000003 41.812 C -100.46800000000003 41.870999999999995 -100.75500000000002 41.906 -101.05100000000003 41.906 C -101.85700000000003 41.906 -102.60400000000003 41.664 -103.23800000000003 41.262 L -112.23000000000003 52.694 C -111.75500000000004 53.183 -111.41400000000003 53.801 -111.26200000000003 54.49 M -96.19900000000003 58.318000000000005 C -98.08300000000003 57.931000000000004 -99.55600000000003 56.432 -99.91600000000003 54.539 L -111.18800000000003 55.488 C -111.18800000000003 55.49 -111.18800000000003 55.492 -111.18800000000003 55.493 z M -94.01100000000002 67.944 C -93.93600000000002 67.918 -93.86000000000003 67.894 -93.78300000000003 67.873 L -94.92400000000004 59.572 L -109.99300000000004 56.735 C -105.27400000000004 61.22 -99.89500000000004 65.012 -94.01100000000004 67.944 M -92.78800000000004 67.721 C -91.81500000000004 67.721 -90.93800000000005 68.10300000000001 -90.27500000000003 68.715 L -84.03400000000003 63.565000000000005 C -84.37100000000004 63.017 -84.57500000000003 62.379000000000005 -84.57500000000003 61.68900000000001 C -84.57500000000003 61.632000000000005 -84.56100000000004 61.57900000000001 -84.55800000000004 61.52300000000001 L -93.88700000000003 59.76700000000001 L -92.79400000000003 67.72200000000001 C -92.79200000000003 67.72200000000001 -92.79000000000002 67.721 -92.78800000000003 67.721 M -89.34900000000002 70.04 C -85.08400000000002 71.763 -80.60100000000001 73.04700000000001 -75.94900000000001 73.84200000000001 C -75.78200000000001 72.90300000000002 -75.30600000000001 72.08000000000001 -74.62900000000002 71.46500000000002 L -79.32400000000001 64.87000000000002 C -79.82000000000001 65.12900000000002 -80.37600000000002 65.28900000000002 -80.97500000000001 65.28900000000002 C -81.91100000000002 65.28900000000002 -82.757 64.92200000000001 -83.397 64.33600000000001 L -89.638 69.48600000000002 C -89.528 69.66200000000002 -89.42800000000001 69.84500000000001 -89.349 70.04000000000002 M -71.795 70.35500000000002 C -71.708 70.35500000000002 -71.626 70.37600000000002 -71.54 70.38200000000002 L -70.134 62.49200000000002 L -77.435 62.28400000000002 C -77.56700000000001 63.07200000000002 -77.949 63.77000000000002 -78.505 64.29700000000003 L -73.812 70.88900000000002 C -73.21 70.55900000000003 -72.53 70.35500000000002 -71.795 70.35500000000002 M -59.620000000000005 64.80300000000003 C -59.981 64.20000000000003 -60.203 63.51200000000003 -60.26200000000001 62.773000000000025 L -69.12400000000001 62.520000000000024 L -70.55700000000002 70.56400000000002 C -69.86300000000001 70.78000000000002 -69.23700000000002 71.15200000000002 -68.74500000000002 71.66500000000002 z M -67.566 74.58400000000003 C -67.566 74.63300000000004 -67.57900000000001 74.67800000000003 -67.58 74.72600000000003 C -66.684 74.76300000000003 -65.788 74.79500000000003 -64.883 74.79500000000003 C -58.827 74.79500000000003 -52.967999999999996 73.95200000000003 -47.39699999999999 72.40800000000003 C -47.33299999999999 72.25700000000003 -47.25499999999999 72.11400000000003 -47.16299999999999 71.98100000000002 L -52.75199999999999 66.11800000000002 C -53.54399999999999 66.72700000000002 -54.52399999999999 67.10400000000003 -55.59999999999999 67.10400000000003 C -56.954999999999984 67.10400000000003 -58.16599999999999 66.52300000000002 -59.02299999999999 65.60600000000002 L -68.15199999999999 72.47100000000002 C -67.78899999999999 73.09500000000001 -67.56599999999999 73.81000000000002 -67.56599999999999 74.58400000000002 M -46.43599999999999 71.29500000000002 C -46.06999999999999 71.07000000000002 -45.642999999999994 70.93400000000001 -45.181999999999995 70.93400000000001 C -45.108999999999995 70.93400000000001 -45.041999999999994 70.94900000000001 -44.971 70.95500000000001 L -43.416 65.91600000000001 L -51.199 64.00200000000001 C -51.391 64.53000000000002 -51.674 65.00600000000001 -52.03 65.42600000000002 z M -43.87799999999999 71.32300000000002 C -41.044999999999995 70.36100000000002 -38.297999999999995 69.21500000000002 -35.651999999999994 67.89100000000002 C -35.64999999999999 67.86900000000001 -35.647999999999996 67.84800000000001 -35.645999999999994 67.82600000000002 L -42.44299999999999 66.15500000000002 L -44.01499999999999 71.24800000000002 C -43.96999999999999 71.27400000000002 -43.92099999999999 71.29400000000003 -43.87799999999999 71.32300000000002 M -35.57499999999999 69.21200000000002 C -35.59199999999999 69.14100000000002 -35.60799999999999 69.07100000000001 -35.62099999999999 68.99800000000002 C -36.47099999999999 69.41600000000003 -37.33299999999999 69.81100000000002 -38.20199999999999 70.19400000000002 z M -33.64799999999999 64.80600000000001 L -36.72199999999999 57.34500000000001 C -37.28499999999999 57.52300000000001 -37.883999999999986 57.62000000000001 -38.505999999999986 57.62000000000001 C -38.938999999999986 57.62000000000001 -39.359999999999985 57.57100000000001 -39.76699999999999 57.48300000000001 L -42.14799999999999 65.19800000000001 L -35.41699999999999 66.85300000000001 C -35.08199999999999 65.98 -34.451999999999984 65.26400000000001 -33.64799999999999 64.80600000000001 M -31.67199999999999 64.26700000000001 C -31.50999999999999 64.26700000000001 -31.35599999999999 64.296 -31.19999999999999 64.31500000000001 L -28.27099999999999 52.533000000000015 L -32.63199999999999 52.39200000000002 C -32.86399999999999 54.38800000000002 -34.087999999999994 56.07800000000002 -35.79899999999999 56.96100000000002 L -32.72399999999999 64.42400000000002 C -32.38599999999999 64.33200000000002 -32.03799999999999 64.26700000000002 -31.67199999999999 64.26700000000002 M -29.94899999999999 64.66900000000003 C -25.510999999999992 61.86200000000002 -21.43399999999999 58.53900000000002 -17.798999999999992 54.782000000000025 C -18.16699999999999 54.21700000000003 -18.386999999999993 53.55700000000002 -18.44899999999999 52.85000000000002 L -27.24899999999999 52.566000000000024 L -30.226999999999993 64.54600000000002 C -30.131999999999994 64.58300000000003 -30.040999999999993 64.62500000000001 -29.948999999999995 64.66900000000003 M -22.697999999999993 43.508000000000024 C -23.221999999999994 43.806000000000026 -23.819999999999993 43.99000000000002 -24.464999999999993 43.99000000000002 C -24.682999999999993 43.99000000000002 -24.89399999999999 43.96300000000002 -25.099999999999994 43.92600000000002 L -27.001999999999995 51.57300000000002 L -18.421999999999997 51.85000000000002 C -18.293999999999997 51.00900000000002 -17.923 50.25400000000002 -17.375999999999998 49.65300000000002 z M -16.629999999999995 48.98800000000003 C -16.376999999999995 48.81600000000003 -16.100999999999996 48.678000000000026 -15.812999999999995 48.56400000000003 L -18.474999999999994 38.45500000000003 L -21.003999999999994 39.453000000000024 C -20.922999999999995 39.754000000000026 -20.864999999999995 40.06400000000002 -20.864999999999995 40.39000000000002 C -20.864999999999995 41.37100000000002 -21.259999999999994 42.25700000000002 -21.895999999999994 42.907000000000025 z M -14.262999999999995 48.26100000000003 C -14.246999999999995 48.26100000000003 -14.230999999999995 48.266000000000034 -14.214999999999995 48.266000000000034 L -12.628999999999994 36.147000000000034 L -17.537999999999993 38.085000000000036 L -14.842999999999993 48.320000000000036 C -14.650999999999993 48.293000000000035 -14.460999999999993 48.26100000000004 -14.262999999999993 48.26100000000004 M -12.862999999999992 48.51700000000004 L -7.550999999999992 37.74700000000004 C -8.610999999999992 37.12900000000004 -9.477999999999993 36.219000000000044 -10.040999999999993 35.12500000000004 L -11.565999999999994 35.72700000000004 L -13.224999999999994 48.405000000000044 C -13.101999999999995 48.43600000000004 -12.981999999999994 48.475000000000044 -12.862999999999994 48.517000000000046 M -8.84 18.418 C -8.994 18.439999999999998 -9.147 18.464 -9.306 18.465 L -10.713 29.21 L -10.133 29.444000000000003 C -9.424999999999999 27.950000000000003 -8.162999999999998 26.774 -6.607999999999999 26.182000000000002 z M -7.995 8.443999999999999 L -8.383000000000001 11.412999999999998 C -8.299000000000001 11.436999999999998 -8.215000000000002 11.461999999999998 -8.133000000000001 11.490999999999998 L -3.14 1.979 Z M -7.731 6.427 L -2.1719999999999997 -0.9770000000000003 C -2.751 -1.569 -3.11 -2.376 -3.114 -3.269 L -6.399 -3.7560000000000002 z M -10.203 11.384 C -9.936 11.318 -9.661 11.275 -9.373999999999999 11.272 L -9.216999999999999 10.072000000000001 z M -13.209999999999999 5.383 L -10.812 10.529 L -8.953 8.054 L -7.388999999999999 -3.9019999999999992 L -9.552 -4.222999999999999 z M -14.451999999999998 -9.212 C -13.874999999999998 -8.331999999999999 -13.536999999999999 -7.281 -13.536999999999999 -6.148999999999999 C -13.536999999999999 -6.0409999999999995 -13.546999999999999 -5.933999999999999 -13.552999999999999 -5.826999999999999 L -10.200999999999999 -5.329999999999999 L -6.873999999999999 -14.062999999999999 C -7.1469999999999985 -14.213999999999999 -7.401999999999999 -14.389999999999999 -7.625999999999999 -14.604 z M -22.022 -22.96 L -15.309999999999999 -20.878 L -15.204999999999998 -21.235 L -21.828 -24.252 L -22.230999999999998 -23.991999999999997 z M -25.881 -19.084 C -26.048000000000002 -18.442999999999998 -26.376 -17.868 -26.835 -17.418 L -22.044 -10.928999999999998 C -21.637 -11.176999999999998 -21.198 -11.376999999999999 -20.731 -11.515999999999998 L -22.174000000000003 -18.656999999999996 z M -24.487000000000002 -23.725 L -23.346000000000004 -24.462 L -23.453000000000003 -24.992 L -28.200000000000003 -27.154 L -28.401000000000003 -24.938 z M -26.643 -22.332 L -25.582 -23.017 L -28.493000000000002 -23.919999999999998 L -28.533 -23.483999999999998 C -27.782 -23.308 -27.131 -22.895999999999997 -26.643 -22.331999999999997 M -20.949 29.060000000000006 C -21.094 29.077000000000005 -21.236 29.104000000000006 -21.385 29.104000000000006 C -21.489 29.104000000000006 -21.586000000000002 29.082000000000008 -21.687 29.074000000000005 L -23.454 36.952000000000005 C -22.584 37.208000000000006 -21.855 37.77400000000001 -21.395 38.53300000000001 L -18.730999999999998 37.48100000000001 z M -18.223000000000003 27.257000000000005 C -18.623 27.952000000000005 -19.232000000000003 28.510000000000005 -19.978 28.822000000000006 L -17.795 37.11200000000001 L -12.481000000000002 35.013000000000005 L -11.805000000000001 29.847000000000005 z M -19.633000000000003 22.245000000000005 C -19.627000000000002 22.248000000000005 -19.622000000000003 22.251000000000005 -19.617000000000004 22.254000000000005 L -11.492000000000004 11.435000000000004 L -13.706000000000005 6.685000000000004 z M -13.799000000000003 4.119000000000003 L -10.565000000000003 -4.3729999999999976 L -13.698000000000004 -4.837999999999997 C -14.060000000000004 -3.3329999999999975 -15.027000000000005 -2.0669999999999975 -16.330000000000005 -1.3089999999999975 z M -19.034000000000002 -0.554999999999997 L -20.629 21.860000000000003 C -20.607000000000003 21.865000000000002 -20.586000000000002 21.875000000000004 -20.564 21.880000000000003 L -14.295 5.421000000000003 L -17.236 -0.8879999999999972 C -17.799 -0.6839999999999973 -18.403000000000002 -0.5659999999999972 -19.034 -0.5549999999999973 M -15.881999999999998 -18.939999999999998 L -15.592999999999998 -19.918999999999997 L -21.796 -21.842999999999996 L -21.337 -19.566999999999997 z M -21.128999999999998 -18.537 L -19.750999999999998 -11.713999999999999 C -19.548999999999996 -11.735999999999999 -19.343999999999998 -11.748999999999999 -19.136999999999997 -11.748999999999999 C -18.759999999999998 -11.748999999999999 -18.392999999999997 -11.710999999999999 -18.037999999999997 -11.639999999999999 L -16.169999999999998 -17.967 z M -10.296999999999997 18.323999999999998 C -11.772999999999996 17.915 -12.862999999999996 16.601 -12.925999999999997 15.010999999999997 L -18.807999999999996 22.842999999999996 C -18.138999999999996 23.505999999999997 -17.722999999999995 24.424999999999997 -17.722999999999995 25.441999999999997 C -17.722999999999995 25.749999999999996 -17.772999999999996 26.044999999999998 -17.844999999999995 26.330999999999996 L -11.670999999999996 28.822999999999997 z M -10.490999999999998 30.378 L -10.846999999999998 30.234 L -11.416999999999998 34.593 L -10.427999999999997 34.203 C -10.636999999999997 33.569 -10.753999999999998 32.893 -10.753999999999998 32.189 C -10.753999999999998 31.56 -10.659999999999998 30.953 -10.490999999999998 30.378 M -91.355 56.406 C -92.007 57.32 -92.971 57.987 -94.09400000000001 58.263999999999996 L -94.031 58.726 L -84.372 60.546 C -84.353 60.49 -84.341 60.431 -84.319 60.376 z M -87.909 54.260999999999996 L -90.52000000000001 54.218999999999994 C -90.57600000000001 54.681 -90.67900000000002 55.126999999999995 -90.85700000000001 55.538999999999994 L -83.82200000000002 59.50899999999999 C -83.76700000000001 59.43699999999999 -83.71000000000002 59.36699999999999 -83.64900000000002 59.29999999999999 z M -70.807 53.419 L -97.658 40.104 C -97.79 40.299 -97.943 40.478 -98.106 40.647 L -87.43799999999999 53.268 L -70.84199999999998 53.534 C -70.83399999999999 53.494 -70.81699999999998 53.458 -70.80699999999999 53.419 M -70.74499999999999 54.928999999999995 C -70.791 54.800999999999995 -70.83099999999999 54.67099999999999 -70.856 54.53399999999999 L -86.58 54.28199999999999 L -82.889 58.64999999999999 C -82.333 58.29899999999999 -81.67999999999999 58.08899999999999 -80.975 58.08899999999999 C -79.848 58.08899999999999 -78.85499999999999 58.61699999999999 -78.195 59.42699999999999 z M -69.06599999999999 56.501999999999995 C -69.51699999999998 56.36899999999999 -69.91899999999998 56.123999999999995 -70.22899999999998 55.785999999999994 L -77.66499999999999 60.27499999999999 C -77.529 60.590999999999994 -77.455 60.93399999999999 -77.41499999999999 61.288999999999994 L -69.957 61.49999999999999 z M -66.54999999999998 55.85399999999999 C -66.94499999999998 56.25599999999999 -67.47599999999998 56.51599999999999 -68.06599999999999 56.584999999999994 L -68.94699999999999 61.52799999999999 L -60.234999999999985 61.77499999999999 C -60.16299999999998 61.24199999999999 -60.003999999999984 60.74199999999999 -59.768999999999984 60.28099999999999 z M -43.765999999999984 54.40599999999999 C -44.02099999999999 53.910999999999994 -44.19999999999998 53.37299999999999 -44.307999999999986 52.80899999999999 L -65.86599999999999 54.53799999999999 C -65.89799999999998 54.70299999999999 -65.94299999999998 54.86299999999999 -66.00399999999999 55.014999999999986 L -59.22099999999999 59.444999999999986 C -58.35899999999999 58.39299999999999 -57.06599999999999 57.70699999999999 -55.59999999999999 57.70699999999999 C -54.10199999999999 57.70699999999999 -52.783999999999985 58.42199999999999 -51.92299999999999 59.51399999999999 z M -26.819999999999983 43.09299999999999 L -33.56099999999998 48.47199999999999 C -33.00799999999998 49.320999999999984 -32.659999999999975 50.316999999999986 -32.60399999999998 51.39299999999999 L -28.02399999999998 51.539999999999985 L -26.05199999999998 43.606999999999985 C -26.329999999999977 43.46899999999999 -26.58699999999998 43.29399999999998 -26.81999999999998 43.09299999999998 M -50.964999999999975 63.02999999999999 L -43.119999999999976 64.95899999999999 L -40.72199999999997 57.18699999999999 C -41.726999999999975 56.78099999999999 -42.59099999999997 56.10599999999999 -43.232999999999976 55.25199999999999 L -51.388999999999974 60.35899999999999 C -51.086999999999975 60.97999999999999 -50.90199999999997 61.66899999999999 -50.90199999999997 62.405999999999985 C -50.90199999999997 62.61999999999998 -50.93699999999997 62.823999999999984 -50.964999999999975 63.02999999999999 M -96.19099999999997 58.31899999999999 L -95.06699999999998 58.53099999999999 L -95.08499999999998 58.40099999999999 C -95.13499999999998 58.40199999999999 -95.18299999999998 58.41599999999999 -95.23399999999998 58.41599999999999 C -95.56199999999998 58.41599999999999 -95.88199999999998 58.38199999999999 -96.19099999999997 58.31899999999999 M -95.23399999999998 48.87099999999999 C -92.74399999999999 48.87099999999999 -90.72199999999998 50.78599999999999 -90.50499999999998 53.21899999999999 L -88.76499999999999 53.246999999999986 L -98.88599999999998 41.27399999999999 C -99.00399999999998 41.347999999999985 -99.12799999999999 41.411999999999985 -99.25399999999998 41.47399999999999 L -96.42299999999997 49.03899999999999 C -96.04099999999997 48.93999999999999 -95.64699999999998 48.87099999999999 -95.23399999999998 48.87099999999999 M -112.09399999999998 34.89299999999999 L -104.90399999999998 36.47499999999999 C -104.64599999999999 35.72999999999999 -104.18399999999998 35.08999999999999 -103.57799999999999 34.609999999999985 L -107.70299999999999 27.445999999999984 C -108.69599999999998 27.933999999999983 -109.80799999999999 28.214999999999982 -110.98899999999999 28.214999999999982 C -111.10499999999999 28.214999999999982 -111.21799999999999 28.20299999999998 -111.33299999999998 28.19699999999998 z M -123.00999999999998 -9.072000000000017 L -118.70999999999998 -7.376000000000017 C -117.96199999999997 -8.777000000000017 -116.50399999999998 -9.742000000000017 -114.80399999999997 -9.742000000000017 C -114.63899999999997 -9.742000000000017 -114.48299999999998 -9.711000000000016 -114.32299999999998 -9.694000000000017 L -112.44299999999998 -18.009000000000015 C -113.05999999999999 -18.241000000000014 -113.59099999999998 -18.631000000000014 -114.00199999999998 -19.131000000000014 L -120.89599999999999 -14.898000000000014 z M -121.77199999999998 0.45099999999998275 L -118.37899999999998 -2.679000000000017 C -118.91999999999997 -3.415000000000017 -119.24899999999998 -4.315000000000017 -119.24899999999998 -5.298000000000018 C -119.24899999999998 -5.698000000000018 -119.17899999999999 -6.078000000000018 -119.07999999999998 -6.447000000000018 L -123.35099999999998 -8.132000000000017 L -124.61899999999999 -4.6350000000000176 z M -122.52799999999998 1.1479999999999828 L -125.06999999999998 -3.3930000000000176 L -127.51899999999998 3.3589999999999822 C -126.96399999999997 3.6159999999999823 -126.45699999999998 3.9549999999999823 -126.01199999999997 4.362999999999982 z M -115.06699999999998 14.474999999999984 L -118.57199999999997 8.213999999999984 L -120.45999999999998 14.155999999999985 L -117.01999999999998 16.330999999999985 C -116.48599999999998 15.600999999999985 -115.82599999999998 14.969999999999985 -115.06699999999998 14.474999999999985 M -116.61599999999999 -1.247000000000014 C -117.01299999999999 -1.425000000000014 -117.37099999999998 -1.667000000000014 -117.69699999999999 -1.949000000000014 L -121.26999999999998 1.348999999999986 L -118.82699999999998 5.711999999999986 z M -118.15699999999998 6.907999999999985 L -114.19299999999998 13.988999999999987 C -113.67899999999999 13.743999999999987 -113.13599999999998 13.551999999999987 -112.56499999999998 13.429999999999987 L -114.65999999999998 -0.8680000000000128 C -114.70899999999999 -0.8660000000000128 -114.75499999999998 -0.8530000000000127 -114.80399999999999 -0.8530000000000127 C -115.09899999999999 -0.8530000000000127 -115.38599999999998 -0.8850000000000128 -115.66399999999999 -0.9400000000000127 z M -122.67999999999998 32.56499999999998 L -113.07599999999998 34.676999999999985 L -112.32699999999998 28.088999999999984 C -114.08199999999998 27.770999999999983 -115.62399999999998 26.845999999999986 -116.72299999999998 25.531999999999986 L -123.23299999999999 30.272999999999985 C -122.87499999999999 30.877999999999986 -122.65599999999999 31.574999999999985 -122.65599999999999 32.328999999999986 C -122.65599999999999 32.40999999999999 -122.675 32.484999999999985 -122.67999999999999 32.56499999999998 M -124.755 11.438999999999982 L -121.33399999999999 13.602999999999982 L -119.24199999999999 7.017999999999982 L -122.026 2.0459999999999816 L -125.333 5.096999999999982 C -124.55499999999999 6.097999999999981 -124.087 7.351999999999982 -124.087 8.716999999999981 C -124.087 9.699999999999982 -124.33 10.623999999999981 -124.75500000000001 11.43899999999998 M -126.25200000000001 -10.35200000000002 L -123.94000000000001 -9.43900000000002 L -122.26400000000001 -14.05800000000002 L -126.35900000000001 -11.54400000000002 C -126.27000000000001 -11.29300000000002 -126.21300000000001 -11.02800000000002 -126.21300000000001 -10.74700000000002 C -126.21300000000001 -10.61100000000002 -126.23100000000001 -10.48100000000002 -126.25200000000001 -10.35200000000002 M -87.82500000000002 -40.88100000000002 L -86.93500000000002 -40.22900000000002 L -85.63700000000001 -40.40200000000002 C -85.08500000000001 -40.73500000000002 -84.44500000000002 -40.93900000000002 -83.75300000000001 -40.93900000000002 C -83.40600000000002 -40.93900000000002 -83.07800000000002 -40.87500000000002 -82.76000000000002 -40.78500000000002 L -82.53400000000002 -40.81500000000002 L -78.50700000000002 -48.82800000000002 C -78.59800000000001 -48.89100000000002 -78.67800000000003 -48.96800000000002 -78.76200000000001 -49.039000000000016 z M -96.45000000000002 -38.96000000000002 L -90.58700000000002 -39.74200000000002 L -89.41000000000001 -40.80200000000002 L -93.50500000000001 -43.80200000000002 C -93.93 -43.42300000000002 -94.48400000000001 -43.18600000000002 -95.09700000000001 -43.18600000000002 C -95.15 -43.18600000000002 -95.2 -43.19900000000002 -95.25200000000001 -43.20200000000002 z M -91.90200000000002 -38.55800000000002 L -96.74600000000001 -37.91200000000002 L -97.456 -35.39800000000002 C -97.02 -35.20500000000002 -96.626 -34.93700000000002 -96.286 -34.61100000000002 z M -88.36700000000002 -40.03800000000002 L -88.58500000000002 -40.19700000000002 L -88.83000000000003 -39.97600000000002 z M -86.96100000000001 -39.00800000000002 L -87.20200000000001 -39.18400000000002 L -90.14600000000002 -38.792000000000016 L -95.65600000000002 -33.83100000000002 C -95.56000000000002 -33.67800000000002 -95.47300000000001 -33.52000000000002 -95.39800000000002 -33.35400000000002 L -87.31100000000002 -36.44800000000002 C -87.37300000000002 -36.715000000000025 -87.41400000000002 -36.99100000000002 -87.41400000000002 -37.27700000000002 C -87.41400000000002 -37.907000000000025 -87.24100000000001 -38.49000000000002 -86.96100000000001 -39.008000000000024 M -97.52900000000001 -38.816000000000024 L -96.44200000000001 -42.66400000000002 L -99.147 -38.60100000000002 z M -101.65400000000001 -34.834000000000024 C -100.95400000000001 -35.39900000000002 -100.07500000000002 -35.752000000000024 -99.105 -35.752000000000024 C -98.86800000000001 -35.752000000000024 -98.64 -35.721000000000025 -98.415 -35.68200000000002 L -97.82600000000001 -37.76800000000002 L -99.88300000000001 -37.49400000000002 z M -101.20100000000001 -37.318000000000026 L -110.587 -36.068000000000026 C -110.59 -35.934000000000026 -110.60600000000001 -35.80400000000002 -110.626 -35.675000000000026 L -103.778 -33.447000000000024 z M -103.132 -32.185000000000024 L -103.366 -32.261000000000024 L -108.706 -24.238000000000024 C -108.685 -24.219000000000026 -108.662 -24.204000000000025 -108.64200000000001 -24.185000000000024 L -102.42200000000001 -29.31400000000002 C -102.897 -29.981000000000023 -103.18400000000001 -30.792000000000023 -103.18400000000001 -31.673000000000023 C -103.18400000000001 -31.84900000000002 -103.153 -32.01600000000003 -103.132 -32.185000000000024 M -92.91000000000001 -44.60600000000002 L -88.65 -41.48500000000002 L -79.44500000000001 -49.77200000000002 C -79.534 -49.90300000000002 -79.60100000000001 -50.04800000000002 -79.67200000000001 -50.19100000000002 L -92.72300000000001 -45.85500000000002 C -92.71300000000001 -45.76600000000002 -92.69600000000001 -45.679000000000016 -92.69600000000001 -45.58700000000002 C -92.69600000000001 -45.237000000000016 -92.775 -44.90600000000002 -92.91000000000001 -44.606000000000016 M -69.68900000000001 -41.518000000000015 L -81.292 -39.972000000000016 C -80.901 -39.615000000000016 -80.58200000000001 -39.18400000000002 -80.375 -38.689000000000014 z M -45.191 -30.342000000000013 L -57.898 -39.53700000000001 C -58.881 -38.41800000000001 -60.306000000000004 -37.69700000000001 -61.913000000000004 -37.69700000000001 C -64.224 -37.69700000000001 -66.176 -39.16600000000001 -66.93 -41.21500000000001 L -80.13600000000001 -37.72000000000001 C -80.11800000000001 -37.57400000000001 -80.09100000000001 -37.429000000000016 -80.09100000000001 -37.277000000000015 C -80.09100000000001 -35.25500000000002 -81.73100000000001 -33.616000000000014 -83.75300000000001 -33.616000000000014 C -85.13400000000001 -33.616000000000014 -86.32200000000002 -34.390000000000015 -86.94600000000001 -35.52000000000001 L -95.10000000000001 -32.39900000000001 C -95.057 -32.162000000000006 -95.02600000000001 -31.922000000000008 -95.02600000000001 -31.67300000000001 C -95.02600000000001 -29.42100000000001 -96.852 -27.59500000000001 -99.105 -27.59500000000001 C -100.114 -27.59500000000001 -101.025 -27.97500000000001 -101.73700000000001 -28.582000000000008 L -108.00600000000001 -23.413000000000007 C -107.65500000000002 -22.84700000000001 -107.44200000000002 -22.185000000000006 -107.44200000000002 -21.470000000000006 C -107.44200000000002 -19.423000000000005 -109.10200000000002 -17.764000000000006 -111.14900000000002 -17.764000000000006 C -111.25700000000002 -17.764000000000006 -111.36000000000001 -17.787000000000006 -111.46600000000001 -17.796000000000006 L -113.34700000000001 -9.477000000000006 C -111.61200000000001 -8.872000000000005 -110.36000000000001 -7.239000000000006 -110.36000000000001 -5.298000000000005 C -110.36000000000001 -3.2370000000000054 -111.76900000000002 -1.5210000000000052 -113.67100000000002 -1.0170000000000057 L -111.57500000000002 13.289999999999996 C -111.38100000000001 13.273999999999996 -111.18700000000001 13.259999999999996 -110.98900000000002 13.259999999999996 C -108.66600000000003 13.259999999999996 -106.59000000000002 14.318999999999996 -105.21800000000002 15.980999999999996 C -105.58300000000001 13.788999999999996 -105.78300000000002 11.540999999999997 -105.78300000000002 9.246999999999996 C -105.78300000000002 -13.305000000000003 -87.43500000000002 -31.652000000000005 -64.88300000000001 -31.652000000000005 C -57.62000000000001 -31.652000000000005 -50.79900000000001 -29.741000000000003 -44.88000000000001 -26.407000000000004 C -45.34900000000001 -27.024000000000004 -45.63700000000001 -27.785000000000004 -45.63700000000001 -28.620000000000005 C -45.63700000000001 -29.246000000000006 -45.46600000000001 -29.826000000000004 -45.19100000000001 -30.342000000000006 M -39.38900000000001 -32.251000000000005 L -41.58000000000001 -33.249 L -41.55400000000001 -32.258 C -40.95000000000001 -32.191 -40.38400000000001 -31.996000000000002 -39.90500000000001 -31.672000000000004 z M -29.35300000000001 -16.386000000000003 C -31.341000000000008 -16.386000000000003 -32.95300000000001 -17.998000000000005 -32.95300000000001 -19.986000000000004 C -32.95300000000001 -20.562000000000005 -32.80500000000001 -21.098000000000006 -32.56500000000001 -21.580000000000005 L -39.24500000000001 -26.155000000000005 C -39.91800000000001 -25.415000000000006 -40.87900000000001 -24.941000000000006 -41.95800000000001 -24.941000000000006 C -42.16800000000001 -24.941000000000006 -42.37000000000001 -24.969000000000005 -42.570000000000014 -25.003000000000007 C -31.391000000000012 -17.695000000000007 -23.984000000000016 -5.076000000000008 -23.984000000000016 9.246999999999993 C -23.984000000000016 31.798999999999992 -42.33100000000002 50.14699999999999 -64.88300000000001 50.14699999999999 C -82.899 50.14699999999999 -98.221 38.43199999999999 -103.66000000000001 22.223999999999993 C -104.05700000000002 24.189999999999994 -105.22500000000001 25.875999999999994 -106.83500000000001 26.953999999999994 L -102.733 34.084999999999994 C -102.21900000000001 33.852 -101.652 33.714999999999996 -101.051 33.714999999999996 C -98.789 33.714999999999996 -96.955 35.547999999999995 -96.955 37.809999999999995 C -96.955 38.303 -97.056 38.769999999999996 -97.216 39.208 L -70.362 52.524 C -69.89699999999999 51.925000000000004 -69.178 51.532000000000004 -68.36099999999999 51.532000000000004 C -67.14299999999999 51.532000000000004 -66.127 52.391000000000005 -65.87899999999999 53.535000000000004 L -44.41699999999999 51.815000000000005 C -44.417999999999985 51.77700000000001 -44.423999999999985 51.74100000000001 -44.423999999999985 51.703 C -44.423999999999985 48.435 -41.77399999999999 45.785000000000004 -38.505999999999986 45.785000000000004 C -36.79199999999999 45.785000000000004 -35.253999999999984 46.519000000000005 -34.17599999999999 47.684000000000005 L -27.47999999999999 42.34100000000001 C -27.84799999999999 41.78000000000001 -28.06499999999999 41.11200000000001 -28.06499999999999 40.39000000000001 C -28.06499999999999 38.40200000000001 -26.45399999999999 36.790000000000006 -24.46499999999999 36.790000000000006 C -24.45699999999999 36.790000000000006 -24.44999999999999 36.79200000000001 -24.44299999999999 36.79200000000001 L -22.66399999999999 28.86200000000001 C -24.05399999999999 28.341000000000008 -25.04699999999999 27.01300000000001 -25.04699999999999 25.442000000000007 C -25.04699999999999 23.502000000000006 -23.53499999999999 21.931000000000008 -21.62699999999999 21.80400000000001 L -20.030999999999988 -0.6279999999999895 C -22.697999999999986 -1.0569999999999895 -24.73599999999999 -3.3619999999999894 -24.73599999999999 -6.148999999999989 C -24.73599999999999 -7.815999999999989 -24.00399999999999 -9.30899999999999 -22.847999999999992 -10.33499999999999 L -27.64699999999999 -16.83399999999999 C -28.156999999999993 -16.55799999999999 -28.731999999999992 -16.38599999999999 -29.35299999999999 -16.38599999999999 M -30.638999999999992 -24.584999999999987 L -30.19899999999999 -23.475999999999985 C -29.981999999999992 -23.527999999999984 -29.75899999999999 -23.556999999999984 -29.52899999999999 -23.568999999999985 L -29.469999999999988 -24.222999999999985 z M -31.11199999999999 -25.778999999999986 L -29.377999999999993 -25.240999999999985 L -29.163999999999994 -27.592999999999986 L -32.419 -29.075999999999986 z M -38.68099999999999 -26.980999999999987 L -32.00199999999999 -22.40699999999999 C -31.748999999999988 -22.68299999999999 -31.453999999999986 -22.91499999999999 -31.125999999999987 -23.10199999999999 L -31.865999999999985 -24.96599999999999 L -38.634999999999984 -27.065999999999992 C -38.64899999999999 -27.036999999999992 -38.66699999999998 -27.00999999999999 -38.68099999999998 -26.98099999999999 M -34.26399999999998 -31.01499999999999 L -35.76799999999998 -34.80599999999999 L -37.73799999999998 -32.59799999999999 z M -38.43599999999998 -31.81599999999999 L -39.168999999999976 -30.99399999999999 C -38.62199999999998 -30.35199999999999 -38.27999999999997 -29.52999999999999 -38.27999999999997 -28.61999999999999 C -38.27999999999997 -28.414999999999992 -38.30799999999997 -28.21699999999999 -38.339999999999975 -28.02099999999999 L -32.33899999999998 -26.15999999999999 L -33.732999999999976 -29.67399999999999 z M -23.11099999999998 -23.297999999999988 L -23.132999999999978 -23.40899999999999 L -23.24199999999998 -23.337999999999987 z M -24.33699999999998 -22.630999999999986 L -26.09399999999998 -21.495999999999984 C -25.89299999999998 -21.061999999999983 -25.77499999999998 -20.583999999999985 -25.76199999999998 -20.075999999999986 L -22.38199999999998 -19.686999999999987 L -22.88499999999998 -22.179999999999986 z M -15.160999999999978 -17.850999999999985 L -17.07899999999998 -11.353999999999985 C -16.31299999999998 -11.049999999999985 -15.630999999999979 -10.583999999999985 -15.07399999999998 -9.995999999999984 L -8.23999999999998 -15.392999999999985 C -8.53799999999998 -15.901999999999985 -8.71899999999998 -16.483999999999984 -8.73499999999998 -17.110999999999983 z M -12.525999999999978 -20.013999999999985 L -14.285999999999978 -20.815999999999985 L -14.354999999999979 -20.581999999999983 z M -14.637999999999979 -19.621999999999986 L -14.87399999999998 -18.823999999999984 L -10.40599999999998 -18.309999999999985 z M -6.172999999999979 38.34900000000001 C -6.335 38.3 -6.493 38.242 -6.65 38.181 L -10.104000000000001 45.183 C -8.662 42.992 -7.348000000000001 40.711 -6.173000000000001 38.349000000000004 M 0.996 -0.093 C 1.427 2.961 1.665 6.076 1.665 9.247 C 1.665 15.344000000000001 0.8240000000000001 21.244999999999997 -0.7189999999999999 26.858999999999998 C 0.9900000000000002 28.014999999999997 2.112 29.970999999999997 2.112 32.189 C 2.112 35.742 -0.7679999999999998 38.623 -4.321 38.623 C -4.6049999999999995 38.623 -4.8839999999999995 38.598 -5.159 38.562 C -7.005 42.308 -9.186 45.858999999999995 -11.676 49.169 C -10.687 49.942 -10.040000000000001 51.132 -10.040000000000001 52.483999999999995 C -10.040000000000001 54.81699999999999 -11.930000000000001 56.706999999999994 -14.263000000000002 56.706999999999994 C -15.332 56.706999999999994 -16.297 56.297 -17.041 55.641999999999996 L -20.077 58.406 C -20.133000000000003 58.457 -20.188000000000002 58.507999999999996 -20.245 58.558 L -28.392000000000003 65.975 C -27.929000000000002 66.63 -27.652000000000005 67.425 -27.652000000000005 68.288 C -27.652000000000005 70.508 -29.452000000000005 72.30799999999999 -31.672000000000004 72.30799999999999 C -33.218 72.30799999999999 -34.545 71.42599999999999 -35.217000000000006 70.14599999999999 L -42.816 72.98499999999999 C -42.799 73.09999999999998 -42.781000000000006 73.21499999999999 -42.781000000000006 73.33499999999998 C -42.781000000000006 74.66099999999997 -43.85600000000001 75.73599999999998 -45.182 75.73599999999998 C -46.453 75.73599999999998 -47.482 74.74499999999998 -47.567 73.49599999999998 C -53.092 74.98599999999998 -58.894 75.79499999999999 -64.883 75.79499999999999 C -65.841 75.79499999999999 -66.792 75.76299999999999 -67.74 75.722 C -68.24 77.50099999999999 -69.856 78.81299999999999 -71.79499999999999 78.81299999999999 C -74.03999999999999 78.81299999999999 -75.85899999999998 77.05899999999998 -75.99799999999999 74.84899999999999 C -80.535 74.082 -84.916 72.85399999999998 -89.094 71.21499999999999 C -89.08999999999999 71.28999999999999 -89.07199999999999 71.36099999999999 -89.07199999999999 71.43699999999998 C -89.07199999999999 73.48899999999999 -90.73599999999999 75.15299999999998 -92.78799999999998 75.15299999999998 C -94.83999999999999 75.15299999999998 -96.50399999999998 73.48899999999998 -96.50399999999998 71.43699999999998 C -96.50399999999998 70.24999999999999 -95.93699999999998 69.20499999999998 -95.06999999999998 68.52399999999999 C -101.12299999999998 65.42899999999999 -106.64399999999998 61.441999999999986 -111.45299999999997 56.72399999999999 C -112.01399999999998 58.08599999999999 -113.35099999999997 59.04699999999999 -114.91599999999997 59.04699999999999 C -116.98499999999997 59.04699999999999 -118.66299999999997 57.36899999999999 -118.66299999999997 55.29999999999999 C -118.66299999999997 53.62799999999999 -117.55999999999997 52.22799999999999 -116.04799999999997 51.74599999999999 C -119.93499999999997 47.07399999999999 -123.18299999999998 41.85899999999999 -125.68799999999997 36.23999999999999 C -126.01799999999997 36.325999999999986 -126.35699999999997 36.386999999999986 -126.71499999999997 36.386999999999986 C -128.956 36.386999999999986 -130.77299999999997 34.569999999999986 -130.77299999999997 32.328999999999986 C -130.77299999999997 30.738999999999987 -129.85099999999997 29.37699999999999 -128.51999999999998 28.710999999999988 C -129.914 24.16199999999999 -130.81799999999998 19.402999999999988 -131.20299999999997 14.499999999999988 C -133.88599999999997 13.941999999999988 -135.902 11.565999999999988 -135.902 8.716999999999988 C -135.902 5.839999999999988 -133.845 3.445999999999988 -131.12099999999998 2.9199999999999884 C -130.79299999999998 -0.5420000000000118 -130.206 -3.9280000000000115 -129.36599999999999 -7.217000000000012 L -129.278 -8.450000000000012 C -130.279 -8.74000000000001 -131.015 -9.652000000000012 -131.015 -10.747000000000012 C -131.015 -12.073000000000013 -129.94 -13.148000000000012 -128.61399999999998 -13.148000000000012 C -128.34999999999997 -13.148000000000012 -128.09999999999997 -13.095000000000011 -127.86199999999998 -13.016000000000012 L -127.11999999999998 -14.282000000000012 C -124.45599999999997 -21.30600000000001 -120.63999999999997 -27.765000000000015 -115.89699999999998 -33.42600000000001 L -115.70899999999997 -33.74700000000001 C -116.40399999999997 -34.32200000000001 -116.85599999999998 -35.181000000000004 -116.85599999999998 -36.15500000000001 C -116.85599999999998 -37.88900000000001 -115.45099999999998 -39.29400000000001 -113.71699999999998 -39.29400000000001 C -112.80099999999999 -39.29400000000001 -111.98499999999999 -38.89500000000001 -111.41099999999999 -38.26900000000001 C -99.40199999999999 -50.030000000000015 -82.97899999999998 -57.30000000000001 -64.88299999999998 -57.30000000000001 C -58.579999999999984 -57.30000000000001 -52.48699999999998 -56.40000000000001 -46.70399999999998 -54.75500000000001 C -46.14099999999998 -56.48700000000001 -44.53199999999998 -57.74600000000001 -42.61199999999998 -57.74600000000001 C -40.22499999999998 -57.74600000000001 -38.28999999999998 -55.81100000000001 -38.28999999999998 -53.42400000000001 C -38.28999999999998 -52.88300000000001 -38.40199999999998 -52.36900000000001 -38.58299999999998 -51.891000000000005 L -38.284999999999975 -51.736000000000004 C -35.647999999999975 -50.581 -33.095999999999975 -49.268 -30.648999999999976 -47.794000000000004 C -29.861999999999977 -48.940000000000005 -28.544999999999977 -49.693000000000005 -27.050999999999977 -49.693000000000005 C -24.639999999999976 -49.693000000000005 -22.684999999999977 -47.739000000000004 -22.684999999999977 -45.328 C -22.684999999999977 -44.387 -22.989999999999977 -43.521 -23.49699999999998 -42.808 C -21.175999999999977 -40.959 -18.98299999999998 -38.959 -16.92999999999998 -36.823 L -14.300999999999979 -34.444 C -13.59499999999998 -35.052 -12.686999999999978 -35.433 -11.681999999999979 -35.433 C -9.454999999999979 -35.433 -7.649999999999979 -33.628 -7.649999999999979 -31.401 C -7.649999999999979 -29.898 -8.480999999999979 -28.603 -9.699999999999978 -27.909 C -8.157999999999978 -25.627 -6.769999999999978 -23.235 -5.515999999999978 -20.764 C -5.391999999999978 -20.777 -5.270999999999978 -20.801 -5.143999999999978 -20.801 C -3.155999999999978 -20.801 -1.5439999999999778 -19.189999999999998 -1.5439999999999778 -17.200999999999997 C -1.5439999999999778 -16.138999999999996 -2.0129999999999777 -15.193999999999997 -2.744999999999978 -14.534999999999997 C -1.7499999999999778 -11.943999999999996 -0.9119999999999779 -9.277999999999997 -0.243999999999978 -6.543999999999997 C -0.10199999999997802 -6.562999999999997 0.03900000000002196 -6.5879999999999965 0.18700000000002198 -6.5879999999999965 C 2.0120000000000218 -6.5879999999999965 3.491000000000022 -5.108999999999996 3.491000000000022 -3.2839999999999967 C 3.491000000000022 -1.7409999999999968 2.427000000000022 -0.4549999999999965 0.9960000000000218 -0.09299999999999686" stroke-linecap="round" />
</g>
</g>
</g>
<g transform="matrix(0.5581675624695606 1.8382820982641666 -1.8382820982641666 0.5581675624695606 471.0073262958383 568.4738492278394)" id="tagline-9b6aafb4-68a9-44a3-b9b5-09ca90830ca1-logo-0"  >
<g style=""  paint-order="stroke"   >
		<g transform="matrix(1 0 0 1 0 0)" id="tagline-9b6aafb4-68a9-44a3-b9b5-09ca90830ca1-logo-0-path-0"  >
<path style="stroke: rgb(255,255,255); stroke-width: 0; stroke-dasharray: none; stroke-linecap: butt; stroke-dashoffset: 0; stroke-linejoin: miter; stroke-miterlimit: 4; fill: rgb(255,255,255); fill-rule: nonzero; opacity: 0.32;"  paint-order="stroke"  transform=" translate(-5.37, 5.6)" d="M 6.61 -11.44 L 6.61 -11.44 Q 8.46 -11.44 9.73 -10.88 L 9.73 -10.88 L 9.73 -7.86 L 8.99 -7.86 L 8.26 -10.22 Q 7.63 -10.37 6.82 -10.37 L 6.82 -10.37 Q 2.83 -10.37 2.83 -5.6 L 2.83 -5.6 Q 2.83 -0.83 6.5 -0.83 L 6.5 -0.83 Q 7.04 -0.83 7.47 -0.86 Q 7.9 -0.9 8.26 -0.96 L 8.26 -0.96 L 9.18 -3.49 L 9.92 -3.49 L 9.81 -0.46 Q 9.58 -0.34 9.17 -0.21 Q 8.75 -0.08 8.26 0.02 Q 7.78 0.11 7.26 0.18 Q 6.74 0.24 6.3 0.24 L 6.3 0.24 Q 3.6 0.24 2.21 -1.26 Q 0.82 -2.77 0.82 -5.6 L 0.82 -5.6 Q 0.82 -8.43 2.26 -9.94 Q 3.71 -11.44 6.61 -11.44 Z" stroke-linecap="round" />
</g>
</g>
</g>
<g transform="matrix(0.7872807226335005 1.7524329272075974 -1.7524329272075976 0.7872807226335006 479.28549024255403 590.5628028539339)" id="tagline-9b6aafb4-68a9-44a3-b9b5-09ca90830ca1-logo-1"  >
<g style=""  paint-order="stroke"   >
		<g transform="matrix(0.9999999999999999 0 0 1 0 0)" id="tagline-9b6aafb4-68a9-44a3-b9b5-09ca90830ca1-logo-1-path-0"  >
<path style="stroke: rgb(255,255,255); stroke-width: 0; stroke-dasharray: none; stroke-linecap: butt; stroke-dashoffset: 0; stroke-linejoin: miter; stroke-miterlimit: 4; fill: rgb(255,255,255); fill-rule: nonzero; opacity: 0.32;"  paint-order="stroke"  transform=" translate(-6.18, 5.6)" d="M 6.18 -11.44 L 6.18 -11.44 Q 7.47 -11.44 8.46 -11.01 Q 9.46 -10.58 10.14 -9.81 Q 10.83 -9.04 11.18 -7.97 Q 11.54 -6.9 11.54 -5.62 L 11.54 -5.62 Q 11.54 -4.32 11.19 -3.25 Q 10.85 -2.18 10.17 -1.4 Q 9.49 -0.62 8.49 -0.19 Q 7.49 0.24 6.18 0.24 L 6.18 0.24 Q 4.78 0.24 3.77 -0.22 Q 2.75 -0.69 2.1 -1.48 Q 1.44 -2.27 1.13 -3.34 Q 0.82 -4.42 0.82 -5.65 L 0.82 -5.65 Q 0.82 -6.85 1.14 -7.9 Q 1.46 -8.94 2.11 -9.74 Q 2.77 -10.53 3.78 -10.98 Q 4.8 -11.44 6.18 -11.44 Z M 6.18 -10.5 L 6.18 -10.5 Q 4.54 -10.5 3.7 -9.13 Q 2.86 -7.76 2.86 -5.6 L 2.86 -5.6 Q 2.86 -3.31 3.75 -2.01 Q 4.64 -0.7 6.18 -0.7 L 6.18 -0.7 Q 7.71 -0.7 8.6 -2.01 Q 9.49 -3.31 9.49 -5.6 L 9.49 -5.6 Q 9.49 -7.76 8.65 -9.13 Q 7.81 -10.5 6.18 -10.5 Z" stroke-linecap="round" />
</g>
</g>
</g>
<g transform="matrix(1.022569615163709 1.6264020052667363 -1.6264020052667363 1.022569615163709 491.4939587033557 613.3284773774967)" id="tagline-9b6aafb4-68a9-44a3-b9b5-09ca90830ca1-logo-2"  >
<g style=""  paint-order="stroke"   >
		<g transform="matrix(1 0 0 1 0 0)" id="tagline-9b6aafb4-68a9-44a3-b9b5-09ca90830ca1-logo-2-path-0"  >
<path style="stroke: rgb(255,255,255); stroke-width: 0; stroke-dasharray: none; stroke-linecap: butt; stroke-dashoffset: 0; stroke-linejoin: miter; stroke-miterlimit: 4; fill: rgb(255,255,255); fill-rule: nonzero; opacity: 0.32;"  paint-order="stroke"  transform=" translate(-6.655, 5.6)" d="M 4.77 0 L 0.7 0 L 0.7 -0.74 L 2.18 -1.09 L 2.18 -10.11 L 0.7 -10.46 L 0.7 -11.2 L 3.3 -11.2 L 9.97 -3.28 L 9.97 -10.11 L 8.5 -10.46 L 8.5 -11.2 L 12.61 -11.2 L 12.61 -10.46 L 11.14 -10.11 L 11.14 0 L 10.18 0 L 3.3 -8.11 L 3.3 -1.09 L 4.77 -0.74 L 4.77 0 Z" stroke-linecap="round" />
</g>
</g>
</g>
<g transform="matrix(1.248452132352775 1.460205250577988 -1.460205250577988 1.248452132352775 507.5238776510953 635.0778191605638)" id="tagline-9b6aafb4-68a9-44a3-b9b5-09ca90830ca1-logo-3"  >
<g style=""  paint-order="stroke"   >
		<g transform="matrix(0.9999999999999999 0 0 1 0 0)" id="tagline-9b6aafb4-68a9-44a3-b9b5-09ca90830ca1-logo-3-path-0"  >
<path style="stroke: rgb(255,255,255); stroke-width: 0; stroke-dasharray: none; stroke-linecap: butt; stroke-dashoffset: 0; stroke-linejoin: miter; stroke-miterlimit: 4; fill: rgb(255,255,255); fill-rule: nonzero; opacity: 0.32;"  paint-order="stroke"  transform=" translate(-6.655, 5.6)" d="M 4.77 0 L 0.7 0 L 0.7 -0.74 L 2.18 -1.09 L 2.18 -10.11 L 0.7 -10.46 L 0.7 -11.2 L 3.3 -11.2 L 9.97 -3.28 L 9.97 -10.11 L 8.5 -10.46 L 8.5 -11.2 L 12.61 -11.2 L 12.61 -10.46 L 11.14 -10.11 L 11.14 0 L 10.18 0 L 3.3 -8.11 L 3.3 -1.09 L 4.77 -0.74 L 4.77 0 Z" stroke-linecap="round" />
</g>
</g>
</g>
<g transform="matrix(1.4265534697853255 1.2867701031789496 -1.2867701031789496 1.4265534697853255 524.0946710802631 652.0862106955302)" id="tagline-9b6aafb4-68a9-44a3-b9b5-09ca90830ca1-logo-4"  >
<g style=""  paint-order="stroke"   >
		<g transform="matrix(1 0 0 1 0 0)" id="tagline-9b6aafb4-68a9-44a3-b9b5-09ca90830ca1-logo-4-path-0"  >
<path style="stroke: rgb(255,255,255); stroke-width: 0; stroke-dasharray: none; stroke-linecap: butt; stroke-dashoffset: 0; stroke-linejoin: miter; stroke-miterlimit: 4; fill: rgb(255,255,255); fill-rule: nonzero; opacity: 0.32;"  paint-order="stroke"  transform=" translate(-5.085000000000001, 5.6)" d="M 9.34 0 L 0.7 0 L 0.7 -0.74 L 2.18 -1.09 L 2.18 -10.11 L 0.7 -10.46 L 0.7 -11.2 L 9.04 -11.2 L 9.04 -7.92 L 8.29 -7.92 L 7.6 -10.13 L 4.14 -10.26 L 4.14 -6.14 L 7.6 -6.45 L 7.6 -5.02 L 4.14 -5.31 L 4.14 -0.94 L 7.9 -1.07 L 8.72 -3.46 L 9.47 -3.46 L 9.34 0 Z" stroke-linecap="round" />
</g>
</g>
</g>
<g transform="matrix(1.5654603257429138 1.1136274373041484 -1.1136274373041486 1.565460325742914 540.8344573513763 665.5195665889404)" id="tagline-9b6aafb4-68a9-44a3-b9b5-09ca90830ca1-logo-5"  >
<g style=""  paint-order="stroke"   >
		<g transform="matrix(1 0 0 1 0 0)" id="tagline-9b6aafb4-68a9-44a3-b9b5-09ca90830ca1-logo-5-path-0"  >
<path style="stroke: rgb(255,255,255); stroke-width: 0; stroke-dasharray: none; stroke-linecap: butt; stroke-dashoffset: 0; stroke-linejoin: miter; stroke-miterlimit: 4; fill: rgb(255,255,255); fill-rule: nonzero; opacity: 0.32;"  paint-order="stroke"  transform=" translate(-5.37, 5.6)" d="M 6.61 -11.44 L 6.61 -11.44 Q 8.46 -11.44 9.73 -10.88 L 9.73 -10.88 L 9.73 -7.86 L 8.99 -7.86 L 8.26 -10.22 Q 7.63 -10.37 6.82 -10.37 L 6.82 -10.37 Q 2.83 -10.37 2.83 -5.6 L 2.83 -5.6 Q 2.83 -0.83 6.5 -0.83 L 6.5 -0.83 Q 7.04 -0.83 7.47 -0.86 Q 7.9 -0.9 8.26 -0.96 L 8.26 -0.96 L 9.18 -3.49 L 9.92 -3.49 L 9.81 -0.46 Q 9.58 -0.34 9.17 -0.21 Q 8.75 -0.08 8.26 0.02 Q 7.78 0.11 7.26 0.18 Q 6.74 0.24 6.3 0.24 L 6.3 0.24 Q 3.6 0.24 2.21 -1.26 Q 0.82 -2.77 0.82 -5.6 L 0.82 -5.6 Q 0.82 -8.43 2.26 -9.94 Q 3.71 -11.44 6.61 -11.44 Z" stroke-linecap="round" />
</g>
</g>
</g>
<g transform="matrix(1.6847302187753708 0.923318033256584 -0.9233180332565841 1.684730218775371 559.158265966938 677.0037751116907)" id="tagline-9b6aafb4-68a9-44a3-b9b5-09ca90830ca1-logo-6"  >
<g style=""  paint-order="stroke"   >
		<g transform="matrix(1 0 0 1 0 0)" id="tagline-9b6aafb4-68a9-44a3-b9b5-09ca90830ca1-logo-6-path-0"  >
<path style="stroke: rgb(255,255,255); stroke-width: 0; stroke-dasharray: none; stroke-linecap: butt; stroke-dashoffset: 0; stroke-linejoin: miter; stroke-miterlimit: 4; fill: rgb(255,255,255); fill-rule: nonzero; opacity: 0.32;"  paint-order="stroke"  transform=" translate(-5.24, 5.6)" d="M 1.23 -7.81 L 0.48 -7.81 L 0.48 -11.2 L 10 -11.2 L 10 -7.81 L 9.25 -7.81 L 8.53 -10.13 L 6.22 -10.26 L 6.22 -1.09 L 7.7 -0.74 L 7.7 0 L 2.78 0 L 2.78 -0.74 L 4.26 -1.09 L 4.26 -10.26 L 1.94 -10.13 L 1.23 -7.81 Z" stroke-linecap="round" />
</g>
</g>
</g>
<g transform="matrix(1.750700293405367 0.7911261487664771 -0.7911261487664772 1.7507002934053673 570.7108013132078 694.6305858665198)" id="tagline-9b6aafb4-68a9-44a3-b9b5-09ca90830ca1-logo-7"  >
<g style=""  paint-order="stroke"   >
		<g transform="matrix(1 0 0 1 0 0)" id="tagline-9b6aafb4-68a9-44a3-b9b5-09ca90830ca1-logo-7-path-0"  >
<path style="stroke: rgb(255,255,255); stroke-width: 0; stroke-dasharray: none; stroke-linecap: butt; stroke-dashoffset: 0; stroke-linejoin: miter; stroke-miterlimit: 4; fill: rgb(255,255,255); fill-rule: nonzero; opacity: 0.32;"  paint-order="stroke"  transform=" translate(0, 0)" d="" stroke-linecap="round" />
</g>
</g>
</g>
<g transform="matrix(1.8273244637678367 0.5930576740143446 -0.5930576740143446 1.8273244637678367 590.755909690876 690.7829109854471)" id="tagline-9b6aafb4-68a9-44a3-b9b5-09ca90830ca1-logo-8"  >
<g style=""  paint-order="stroke"   >
		<g transform="matrix(0.9999999999999999 0 0 1 0 0)" id="tagline-9b6aafb4-68a9-44a3-b9b5-09ca90830ca1-logo-8-path-0"  >
<path style="stroke: rgb(255,255,255); stroke-width: 0; stroke-dasharray: none; stroke-linecap: butt; stroke-dashoffset: 0; stroke-linejoin: miter; stroke-miterlimit: 4; fill: rgb(255,255,255); fill-rule: nonzero; opacity: 0.32;"  paint-order="stroke"  transform=" translate(-8.095, 5.545)" d="M 1.22 -10.13 L -0.18 -10.46 L -0.18 -11.2 L 4.62 -11.2 L 4.62 -10.46 L 3.28 -10.18 L 5.57 -2.91 L 7.87 -11.2 L 9.23 -11.2 L 11.9 -2.94 L 13.79 -10.11 L 12.5 -10.46 L 12.5 -11.2 L 16.37 -11.2 L 16.37 -10.46 L 14.9 -10.11 L 12.18 0.11 L 10.91 0.11 L 8.13 -8.24 L 5.78 0.11 L 4.54 0.11 L 1.22 -10.13 Z" stroke-linecap="round" />
</g>
</g>
</g>
<g transform="matrix(1.887229904885763 0.3594375977782354 -0.3594375977782355 1.8872299048857633 613.4890663822034 696.5140352200845)" id="tagline-9b6aafb4-68a9-44a3-b9b5-09ca90830ca1-logo-9"  >
<g style=""  paint-order="stroke"   >
		<g transform="matrix(0.9999999999999999 0 0 1 0 0)" id="tagline-9b6aafb4-68a9-44a3-b9b5-09ca90830ca1-logo-9-path-0"  >
<path style="stroke: rgb(255,255,255); stroke-width: 0; stroke-dasharray: none; stroke-linecap: butt; stroke-dashoffset: 0; stroke-linejoin: miter; stroke-miterlimit: 4; fill: rgb(255,255,255); fill-rule: nonzero; opacity: 0.32;"  paint-order="stroke"  transform=" translate(-3.16, 5.6)" d="M 5.62 0 L 0.7 0 L 0.7 -0.74 L 2.19 -1.09 L 2.19 -10.11 L 0.7 -10.46 L 0.7 -11.2 L 5.62 -11.2 L 5.62 -10.46 L 4.14 -10.11 L 4.14 -1.09 L 5.62 -0.74 L 5.62 0 Z" stroke-linecap="round" />
</g>
</g>
</g>
<g transform="matrix(1.91225931802398 0.18465210863182546 -0.18465210863182546 1.91225931802398 630.3278212857888 698.925955803916)" id="tagline-9b6aafb4-68a9-44a3-b9b5-09ca90830ca1-logo-10"  >
<g style=""  paint-order="stroke"   >
		<g transform="matrix(1 0 0 1 0 0)" id="tagline-9b6aafb4-68a9-44a3-b9b5-09ca90830ca1-logo-10-path-0"  >
<path style="stroke: rgb(255,255,255); stroke-width: 0; stroke-dasharray: none; stroke-linecap: butt; stroke-dashoffset: 0; stroke-linejoin: miter; stroke-miterlimit: 4; fill: rgb(255,255,255); fill-rule: nonzero; opacity: 0.32;"  paint-order="stroke"  transform=" translate(-5.24, 5.6)" d="M 1.23 -7.81 L 0.48 -7.81 L 0.48 -11.2 L 10 -11.2 L 10 -7.81 L 9.25 -7.81 L 8.53 -10.13 L 6.22 -10.26 L 6.22 -1.09 L 7.7 -0.74 L 7.7 0 L 2.78 0 L 2.78 -0.74 L 4.26 -1.09 L 4.26 -10.26 L 1.94 -10.13 L 1.23 -7.81 Z" stroke-linecap="round" />
</g>
</g>
</g>
<g transform="matrix(1.9199741380375404 -0.06731574747948331 0.06731574747948331 1.9199741380375404 654.598384152032 699.6703594597274)" id="tagline-9b6aafb4-68a9-44a3-b9b5-09ca90830ca1-logo-11"  >
<g style=""  paint-order="stroke"   >
		<g transform="matrix(1 0 0 1.0000000000000002 0 0)" id="tagline-9b6aafb4-68a9-44a3-b9b5-09ca90830ca1-logo-11-path-0"  >
<path style="stroke: rgb(255,255,255); stroke-width: 0; stroke-dasharray: none; stroke-linecap: butt; stroke-dashoffset: 0; stroke-linejoin: miter; stroke-miterlimit: 4; fill: rgb(255,255,255); fill-rule: nonzero; opacity: 0.32;"  paint-order="stroke"  transform=" translate(-6.615, 5.6)" d="M 5.62 0 L 0.7 0 L 0.7 -0.74 L 2.18 -1.09 L 2.18 -10.11 L 0.7 -10.46 L 0.7 -11.2 L 5.62 -11.2 L 5.62 -10.46 L 4.14 -10.11 L 4.14 -6.19 L 9.09 -6.19 L 9.09 -10.11 L 7.62 -10.46 L 7.62 -11.2 L 12.53 -11.2 L 12.53 -10.46 L 11.06 -10.11 L 11.06 -1.09 L 12.53 -0.74 L 12.53 0 L 7.62 0 L 7.62 -0.74 L 9.09 -1.09 L 9.09 -5.12 L 4.14 -5.12 L 4.14 -1.09 L 5.62 -0.74 L 5.62 0 Z" stroke-linecap="round" />
</g>
</g>
</g>
<g transform="matrix(1.9055182902736438 -0.244606103816576 0.244606103816576 1.9055182902736438 676.5911030251888 708.4952381735573)" id="tagline-9b6aafb4-68a9-44a3-b9b5-09ca90830ca1-logo-12"  >
<g style=""  paint-order="stroke"   >
		<g transform="matrix(1 0 0 1 0 0)" id="tagline-9b6aafb4-68a9-44a3-b9b5-09ca90830ca1-logo-12-path-0"  >
<path style="stroke: rgb(255,255,255); stroke-width: 0; stroke-dasharray: none; stroke-linecap: butt; stroke-dashoffset: 0; stroke-linejoin: miter; stroke-miterlimit: 4; fill: rgb(255,255,255); fill-rule: nonzero; opacity: 0.32;"  paint-order="stroke"  transform=" translate(0, 0)" d="" stroke-linecap="round" />
</g>
</g>
</g>
<g transform="matrix(1.880552628206907 -0.3928790057203493 0.3928790057203493 1.880552628206907 685.9880072134146 695.8680602638549)" id="tagline-9b6aafb4-68a9-44a3-b9b5-09ca90830ca1-logo-13"  >
<g style=""  paint-order="stroke"   >
		<g transform="matrix(0.9999999999999999 0 0 1 0 0)" id="tagline-9b6aafb4-68a9-44a3-b9b5-09ca90830ca1-logo-13-path-0"  >
<path style="stroke: rgb(255,255,255); stroke-width: 0; stroke-dasharray: none; stroke-linecap: butt; stroke-dashoffset: 0; stroke-linejoin: miter; stroke-miterlimit: 4; fill: rgb(255,255,255); fill-rule: nonzero; opacity: 0.32;"  paint-order="stroke"  transform=" translate(-5.37, 5.6)" d="M 6.61 -11.44 L 6.61 -11.44 Q 8.46 -11.44 9.73 -10.88 L 9.73 -10.88 L 9.73 -7.86 L 8.99 -7.86 L 8.26 -10.22 Q 7.63 -10.37 6.82 -10.37 L 6.82 -10.37 Q 2.83 -10.37 2.83 -5.6 L 2.83 -5.6 Q 2.83 -0.83 6.5 -0.83 L 6.5 -0.83 Q 7.04 -0.83 7.47 -0.86 Q 7.9 -0.9 8.26 -0.96 L 8.26 -0.96 L 9.18 -3.49 L 9.92 -3.49 L 9.81 -0.46 Q 9.58 -0.34 9.17 -0.21 Q 8.75 -0.08 8.26 0.02 Q 7.78 0.11 7.26 0.18 Q 6.74 0.24 6.3 0.24 L 6.3 0.24 Q 3.6 0.24 2.21 -1.26 Q 0.82 -2.77 0.82 -5.6 L 0.82 -5.6 Q 0.82 -8.43 2.26 -9.94 Q 3.71 -11.44 6.61 -11.44 Z" stroke-linecap="round" />
</g>
</g>
</g>
<g transform="matrix(1.8153682986542647 -0.6287050507454481 0.6287050507454482 1.815368298654265 708.7241854481879 689.5807037611559)" id="tagline-9b6aafb4-68a9-44a3-b9b5-09ca90830ca1-logo-14"  >
<g style=""  paint-order="stroke"   >
		<g transform="matrix(1 0 0 1 0 0)" id="tagline-9b6aafb4-68a9-44a3-b9b5-09ca90830ca1-logo-14-path-0"  >
<path style="stroke: rgb(255,255,255); stroke-width: 0; stroke-dasharray: none; stroke-linecap: butt; stroke-dashoffset: 0; stroke-linejoin: miter; stroke-miterlimit: 4; fill: rgb(255,255,255); fill-rule: nonzero; opacity: 0.32;"  paint-order="stroke"  transform=" translate(-6.18, 5.6)" d="M 6.18 -11.44 L 6.18 -11.44 Q 7.47 -11.44 8.46 -11.01 Q 9.46 -10.58 10.14 -9.81 Q 10.83 -9.04 11.18 -7.97 Q 11.54 -6.9 11.54 -5.62 L 11.54 -5.62 Q 11.54 -4.32 11.19 -3.25 Q 10.85 -2.18 10.17 -1.4 Q 9.49 -0.62 8.49 -0.19 Q 7.49 0.24 6.18 0.24 L 6.18 0.24 Q 4.78 0.24 3.77 -0.22 Q 2.75 -0.69 2.1 -1.48 Q 1.44 -2.27 1.13 -3.34 Q 0.82 -4.42 0.82 -5.65 L 0.82 -5.65 Q 0.82 -6.85 1.14 -7.9 Q 1.46 -8.94 2.11 -9.74 Q 2.77 -10.53 3.78 -10.98 Q 4.8 -11.44 6.18 -11.44 Z M 6.18 -10.5 L 6.18 -10.5 Q 4.54 -10.5 3.7 -9.13 Q 2.86 -7.76 2.86 -5.6 L 2.86 -5.6 Q 2.86 -3.31 3.75 -2.01 Q 4.64 -0.7 6.18 -0.7 L 6.18 -0.7 Q 7.71 -0.7 8.6 -2.01 Q 9.49 -3.31 9.49 -5.6 L 9.49 -5.6 Q 9.49 -7.76 8.65 -9.13 Q 7.81 -10.5 6.18 -10.5 Z" stroke-linecap="round" />
</g>
</g>
</g>
<g transform="matrix(1.7107085563364781 -0.8742472967466809 0.8742472967466809 1.7107085563364781 732.482844572896 679.4405026112951)" id="tagline-9b6aafb4-68a9-44a3-b9b5-09ca90830ca1-logo-15"  >
<g style=""  paint-order="stroke"   >
		<g transform="matrix(0.9999999999999999 0 0 1 0 0)" id="tagline-9b6aafb4-68a9-44a3-b9b5-09ca90830ca1-logo-15-path-0"  >
<path style="stroke: rgb(255,255,255); stroke-width: 0; stroke-dasharray: none; stroke-linecap: butt; stroke-dashoffset: 0; stroke-linejoin: miter; stroke-miterlimit: 4; fill: rgb(255,255,255); fill-rule: nonzero; opacity: 0.32;"  paint-order="stroke"  transform=" translate(-6.655, 5.6)" d="M 4.77 0 L 0.7 0 L 0.7 -0.74 L 2.18 -1.09 L 2.18 -10.11 L 0.7 -10.46 L 0.7 -11.2 L 3.3 -11.2 L 9.97 -3.28 L 9.97 -10.11 L 8.5 -10.46 L 8.5 -11.2 L 12.61 -11.2 L 12.61 -10.46 L 11.14 -10.11 L 11.14 0 L 10.18 0 L 3.3 -8.11 L 3.3 -1.09 L 4.77 -0.74 L 4.77 0 Z" stroke-linecap="round" />
</g>
</g>
</g>
<g transform="matrix(1.588431332751041 -1.0806100137082144 1.0806100137082144 1.588431332751041 752.41503218542 667.6035109172057)" id="tagline-9b6aafb4-68a9-44a3-b9b5-09ca90830ca1-logo-16"  >
<g style=""  paint-order="stroke"   >
		<g transform="matrix(1 0 0 1 0 0)" id="tagline-9b6aafb4-68a9-44a3-b9b5-09ca90830ca1-logo-16-path-0"  >
<path style="stroke: rgb(255,255,255); stroke-width: 0; stroke-dasharray: none; stroke-linecap: butt; stroke-dashoffset: 0; stroke-linejoin: miter; stroke-miterlimit: 4; fill: rgb(255,255,255); fill-rule: nonzero; opacity: 0.32;"  paint-order="stroke"  transform=" translate(-4.830000000000001, 5.6)" d="M 5.94 0 L 0.7 0 L 0.7 -0.74 L 2.18 -1.09 L 2.18 -10.11 L 0.7 -10.46 L 0.7 -11.2 L 8.96 -11.2 L 8.96 -7.92 L 8.22 -7.92 L 7.55 -10.13 L 4.14 -10.26 L 4.14 -6.16 L 7.6 -6.45 L 7.6 -5.02 L 4.14 -5.3 L 4.14 -1.09 L 5.94 -0.74 L 5.94 0 Z" stroke-linecap="round" />
</g>
</g>
</g>
<g transform="matrix(1.4897151005302074 -1.2130873916762923 1.2130873916762923 1.4897151005302074 765.0017218096734 658.2145453378814)" id="tagline-9b6aafb4-68a9-44a3-b9b5-09ca90830ca1-logo-17"  >
<g style=""  paint-order="stroke"   >
		<g transform="matrix(1 0 0 1.0000000000000002 0 0)" id="tagline-9b6aafb4-68a9-44a3-b9b5-09ca90830ca1-logo-17-path-0"  >
<path style="stroke: rgb(255,255,255); stroke-width: 0; stroke-dasharray: none; stroke-linecap: butt; stroke-dashoffset: 0; stroke-linejoin: miter; stroke-miterlimit: 4; fill: rgb(255,255,255); fill-rule: nonzero; opacity: 0.32;"  paint-order="stroke"  transform=" translate(-3.16, 5.6)" d="M 5.62 0 L 0.7 0 L 0.7 -0.74 L 2.19 -1.09 L 2.19 -10.11 L 0.7 -10.46 L 0.7 -11.2 L 5.62 -11.2 L 5.62 -10.46 L 4.14 -10.11 L 4.14 -1.09 L 5.62 -0.74 L 5.62 0 Z" stroke-linecap="round" />
</g>
</g>
</g>
<g transform="matrix(1.3603690282841514 -1.356550112409029 1.3565501124090291 1.3603690282841514 778.7468029438427 645.8271749719235)" id="tagline-9b6aafb4-68a9-44a3-b9b5-09ca90830ca1-logo-18"  >
<g style=""  paint-order="stroke"   >
		<g transform="matrix(1 0 0 1 0 0)" id="tagline-9b6aafb4-68a9-44a3-b9b5-09ca90830ca1-logo-18-path-0"  >
<path style="stroke: rgb(255,255,255); stroke-width: 0; stroke-dasharray: none; stroke-linecap: butt; stroke-dashoffset: 0; stroke-linejoin: miter; stroke-miterlimit: 4; fill: rgb(255,255,255); fill-rule: nonzero; opacity: 0.32;"  paint-order="stroke"  transform=" translate(-5.94, 5.6)" d="M 4.86 0 L 0.7 0 L 0.7 -0.74 L 2.18 -1.09 L 2.18 -10.11 L 0.7 -10.46 L 0.7 -11.2 L 4.86 -11.2 Q 7.81 -11.2 9.5 -9.79 Q 11.18 -8.38 11.18 -5.6 L 11.18 -5.6 Q 11.18 -3.09 9.44 -1.54 Q 7.7 0 4.86 0 L 4.86 0 Z M 4.14 -10.13 L 4.14 -1.07 L 4.78 -1.07 Q 6.91 -1.07 8.04 -2.14 Q 9.17 -3.22 9.17 -5.6 L 9.17 -5.6 Q 9.17 -7.81 8.01 -8.97 Q 6.85 -10.13 4.78 -10.13 L 4.78 -10.13 L 4.14 -10.13 Z" stroke-linecap="round" />
</g>
</g>
</g>
<g transform="matrix(1.188637399526925 -1.5092956082350422 1.5092956082350422 1.188637399526925 793.5018901337754 629.2527854185876)" id="tagline-9b6aafb4-68a9-44a3-b9b5-09ca90830ca1-logo-19"  >
<g style=""  paint-order="stroke"   >
		<g transform="matrix(1 0 0 1 0 0)" id="tagline-9b6aafb4-68a9-44a3-b9b5-09ca90830ca1-logo-19-path-0"  >
<path style="stroke: rgb(255,255,255); stroke-width: 0; stroke-dasharray: none; stroke-linecap: butt; stroke-dashoffset: 0; stroke-linejoin: miter; stroke-miterlimit: 4; fill: rgb(255,255,255); fill-rule: nonzero; opacity: 0.32;"  paint-order="stroke"  transform=" translate(-5.085000000000001, 5.6)" d="M 9.34 0 L 0.7 0 L 0.7 -0.74 L 2.18 -1.09 L 2.18 -10.11 L 0.7 -10.46 L 0.7 -11.2 L 9.04 -11.2 L 9.04 -7.92 L 8.29 -7.92 L 7.6 -10.13 L 4.14 -10.26 L 4.14 -6.14 L 7.6 -6.45 L 7.6 -5.02 L 4.14 -5.31 L 4.14 -0.94 L 7.9 -1.07 L 8.72 -3.46 L 9.47 -3.46 L 9.34 0 Z" stroke-linecap="round" />
</g>
</g>
</g>
<g transform="matrix(0.9837936262790001 -1.6501461151923884 1.6501461151923884 0.9837936262790001 807.1849171869429 609.341956339342)" id="tagline-9b6aafb4-68a9-44a3-b9b5-09ca90830ca1-logo-20"  >
<g style=""  paint-order="stroke"   >
		<g transform="matrix(1 0 0 1 0 0)" id="tagline-9b6aafb4-68a9-44a3-b9b5-09ca90830ca1-logo-20-path-0"  >
<path style="stroke: rgb(255,255,255); stroke-width: 0; stroke-dasharray: none; stroke-linecap: butt; stroke-dashoffset: 0; stroke-linejoin: miter; stroke-miterlimit: 4; fill: rgb(255,255,255); fill-rule: nonzero; opacity: 0.32;"  paint-order="stroke"  transform=" translate(-6.655, 5.6)" d="M 4.77 0 L 0.7 0 L 0.7 -0.74 L 2.18 -1.09 L 2.18 -10.11 L 0.7 -10.46 L 0.7 -11.2 L 3.3 -11.2 L 9.97 -3.28 L 9.97 -10.11 L 8.5 -10.46 L 8.5 -11.2 L 12.61 -11.2 L 12.61 -10.46 L 11.14 -10.11 L 11.14 0 L 10.18 0 L 3.3 -8.11 L 3.3 -1.09 L 4.77 -0.74 L 4.77 0 Z" stroke-linecap="round" />
</g>
</g>
</g>
<g transform="matrix(0.7616743957929903 -1.7637131896612608 1.763713189661261 0.7616743957929903 818.0596483416147 588.0539806415196)" id="tagline-9b6aafb4-68a9-44a3-b9b5-09ca90830ca1-logo-21"  >
<g style=""  paint-order="stroke"   >
		<g transform="matrix(1 0 0 1 0 0)" id="tagline-9b6aafb4-68a9-44a3-b9b5-09ca90830ca1-logo-21-path-0"  >
<path style="stroke: rgb(255,255,255); stroke-width: 0; stroke-dasharray: none; stroke-linecap: butt; stroke-dashoffset: 0; stroke-linejoin: miter; stroke-miterlimit: 4; fill: rgb(255,255,255); fill-rule: nonzero; opacity: 0.32;"  paint-order="stroke"  transform=" translate(-5.37, 5.6)" d="M 6.61 -11.44 L 6.61 -11.44 Q 8.46 -11.44 9.73 -10.88 L 9.73 -10.88 L 9.73 -7.86 L 8.99 -7.86 L 8.26 -10.22 Q 7.63 -10.37 6.82 -10.37 L 6.82 -10.37 Q 2.83 -10.37 2.83 -5.6 L 2.83 -5.6 Q 2.83 -0.83 6.5 -0.83 L 6.5 -0.83 Q 7.04 -0.83 7.47 -0.86 Q 7.9 -0.9 8.26 -0.96 L 8.26 -0.96 L 9.18 -3.49 L 9.92 -3.49 L 9.81 -0.46 Q 9.58 -0.34 9.17 -0.21 Q 8.75 -0.08 8.26 0.02 Q 7.78 0.11 7.26 0.18 Q 6.74 0.24 6.3 0.24 L 6.3 0.24 Q 3.6 0.24 2.21 -1.26 Q 0.82 -2.77 0.82 -5.6 L 0.82 -5.6 Q 0.82 -8.43 2.26 -9.94 Q 3.71 -11.44 6.61 -11.44 Z" stroke-linecap="round" />
</g>
</g>
</g>
<g transform="matrix(0.5531453440240302 -1.8397995349972924 1.8397995349972924 0.5531453440240302 825.3654807570233 568.0334856930048)" id="tagline-9b6aafb4-68a9-44a3-b9b5-09ca90830ca1-logo-22"  >
<g style=""  paint-order="stroke"   >
		<g transform="matrix(1 0 0 1 0 0)" id="tagline-9b6aafb4-68a9-44a3-b9b5-09ca90830ca1-logo-22-path-0"  >
<path style="stroke: rgb(255,255,255); stroke-width: 0; stroke-dasharray: none; stroke-linecap: butt; stroke-dashoffset: 0; stroke-linejoin: miter; stroke-miterlimit: 4; fill: rgb(255,255,255); fill-rule: nonzero; opacity: 0.32;"  paint-order="stroke"  transform=" translate(-5.085000000000001, 5.6)" d="M 9.34 0 L 0.7 0 L 0.7 -0.74 L 2.18 -1.09 L 2.18 -10.11 L 0.7 -10.46 L 0.7 -11.2 L 9.04 -11.2 L 9.04 -7.92 L 8.29 -7.92 L 7.6 -10.13 L 4.14 -10.26 L 4.14 -6.14 L 7.6 -6.45 L 7.6 -5.02 L 4.14 -5.31 L 4.14 -0.94 L 7.9 -1.07 L 8.72 -3.46 L 9.47 -3.46 L 9.34 0 Z" stroke-linecap="round" />
</g>
</g>
</g>
<g transform="matrix(1.9211538461538462 0 0 1.9211538461538462 640.8229581984037 484.6800921506868)" id="tagline-a9e297be-94e8-472e-90e5-af18b6430ced-logo"  >
<g style=""  paint-order="stroke"   >
		<g transform="matrix(1 0 0 1 0 0)" id="tagline-a9e297be-94e8-472e-90e5-af18b6430ced-logo-path-0"  >
<path style="stroke: none; stroke-width: 0; stroke-dasharray: none; stroke-linecap: butt; stroke-dashoffset: 0; stroke-linejoin: miter; stroke-miterlimit: 4; fill: rgb(90,55,186); fill-rule: nonzero; opacity: 1;"  paint-order="stroke"  transform=" translate(-49.68, 24.595000000000002)" d="M 27.12 -50.24 L 27.12 -50.24 Q 32.82 -50.24 37.17 -48.35 Q 41.53 -46.45 44.55 -43.08 Q 47.57 -39.7 49.12 -34.99 Q 50.66 -30.29 50.66 -24.66 L 50.66 -24.66 Q 50.66 -18.97 49.15 -14.26 Q 47.64 -9.56 44.66 -6.15 Q 41.67 -2.74 37.28 -0.84 Q 32.89 1.05 27.12 1.05 L 27.12 1.05 Q 21.01 1.05 16.55 -0.98 Q 12.09 -3.02 9.21 -6.5 Q 6.32 -9.98 4.95 -14.69 Q 3.58 -19.39 3.58 -24.81 L 3.58 -24.81 Q 3.58 -30.08 4.99 -34.68 Q 6.39 -39.28 9.28 -42.76 Q 12.16 -46.24 16.62 -48.24 Q 21.08 -50.24 27.12 -50.24 Z M 27.12 -46.1 L 27.12 -46.1 Q 19.96 -46.1 16.27 -40.09 Q 12.58 -34.08 12.58 -24.59 L 12.58 -24.59 Q 12.58 -14.55 16.48 -8.82 Q 20.38 -3.09 27.12 -3.09 L 27.12 -3.09 Q 33.87 -3.09 37.77 -8.82 Q 41.67 -14.55 41.67 -24.59 L 41.67 -24.59 Q 41.67 -34.08 37.98 -40.09 Q 34.29 -46.1 27.12 -46.1 Z M 95.36 0 L 57.76 0 L 57.76 -4.36 L 85.24 -45.04 L 64.3 -44.48 L 61.27 -34.43 L 58.04 -34.43 L 58.04 -49.19 L 95.43 -49.19 L 95.43 -44.83 L 68.16 -4.36 L 89.1 -4.71 L 92.54 -15.18 L 95.78 -15.18 L 95.36 0 Z" stroke-linecap="round" />
</g>
</g>
</g>
<g transform="matrix(1.9211538461538462 0 0 1.9211538461538462 649.6427592543625 568.02959130214)" id="text-logo"  >
<g style=""  paint-order="stroke"   >
		<g transform="matrix(1 0 0 1 0 0)" id="text-logo-path-0"  >
<path style="stroke: rgb(255,255,255); stroke-width: 0; stroke-dasharray: none; stroke-linecap: butt; stroke-dashoffset: 0; stroke-linejoin: miter; stroke-miterlimit: 4; fill: rgb(90,55,186); fill-rule: nonzero; opacity: 1;"  paint-order="stroke"  transform=" translate(-69.42500000000001, 11.18)" d="M 15.86 -6.5 L 15.86 -22.84 L 19.67 -22.84 L 19.67 0 L 15.35 0 L 6.38 -16.33 L 6.38 0 L 2.54 0 L 2.54 -22.84 L 6.95 -22.84 L 15.86 -6.5 Z M 37.48 -5.55 Q 36.82 -4.54 36.14 -3.92 Q 35.45 -3.3 34.53 -3.04 L 34.53 -3.04 Q 33.77 -2.85 32.95 -2.85 L 32.95 -2.85 Q 31.68 -2.85 30.63 -3.33 L 30.63 -3.33 Q 28.63 -4.41 28.41 -7.64 L 28.41 -7.64 L 40.81 -7.64 Q 40.85 -7.9 40.85 -8.44 L 40.85 -8.44 Q 40.85 -10.75 40 -12.8 Q 39.16 -14.84 37.58 -16.02 L 37.58 -16.02 Q 36.53 -16.78 35.25 -17.18 Q 33.96 -17.57 32.6 -17.57 L 32.6 -17.57 Q 30.22 -17.57 28.28 -16.46 L 28.28 -16.46 Q 26.35 -15.26 25.38 -13.16 Q 24.42 -11.07 24.42 -8.5 L 24.42 -8.5 Q 24.42 -5.68 25.67 -3.38 Q 26.92 -1.08 29.2 -0.19 L 29.2 -0.19 Q 30.66 0.44 32.66 0.44 L 32.66 0.44 Q 34.03 0.44 35.42 0.1 L 35.42 0.1 Q 38.28 -0.79 40.27 -3.74 L 40.27 -3.74 L 37.48 -5.55 Z M 30.16 -13.51 Q 31.2 -14.27 32.6 -14.27 L 32.6 -14.27 Q 33.14 -14.27 33.84 -14.11 L 33.84 -14.11 Q 35.1 -13.83 35.85 -12.86 Q 36.6 -11.89 36.75 -10.47 L 36.75 -10.47 L 28.54 -10.47 Q 28.89 -12.66 30.16 -13.51 L 30.16 -13.51 Z M 54.48 -3.65 L 53.08 -3.65 Q 52.03 -3.65 51.51 -3.81 Q 50.99 -3.96 50.72 -4.5 Q 50.45 -5.04 50.35 -6.22 L 50.35 -6.22 L 50.35 -13.96 L 54.48 -13.96 L 54.48 -17.13 L 50.35 -17.13 L 50.35 -21.41 L 46.55 -21.41 L 46.55 -17.13 L 43.69 -17.13 L 43.69 -13.96 L 46.55 -13.96 L 46.55 -5.71 Q 46.55 -4.31 47.28 -2.92 Q 48.01 -1.52 49.34 -0.76 L 49.34 -0.76 Q 50.13 -0.29 50.88 -0.14 Q 51.62 0 52.83 0 L 52.83 0 L 54.48 0 L 54.48 -3.65 Z M 74.64 -5.68 L 78.13 -17.13 L 81.62 -17.13 L 76.39 0 L 72.9 0 L 69.41 -11.42 L 65.92 0 L 62.4 0 L 57.16 -17.13 L 60.69 -17.13 L 64.17 -5.68 L 67.63 -17.13 L 71.15 -17.13 L 74.64 -5.68 Z M 99.69 -8.56 Q 99.69 -11.16 98.68 -13.23 Q 97.66 -15.29 95.82 -16.45 Q 93.98 -17.6 91.6 -17.6 L 91.6 -17.6 Q 89.19 -17.6 87.35 -16.45 Q 85.51 -15.29 84.51 -13.23 Q 83.51 -11.16 83.51 -8.56 L 83.51 -8.56 Q 83.51 -5.84 84.5 -3.79 Q 85.48 -1.74 87.31 -0.63 Q 89.13 0.48 91.6 0.48 L 91.6 0.48 Q 94.08 0.48 95.9 -0.67 Q 97.72 -1.81 98.71 -3.85 Q 99.69 -5.9 99.69 -8.56 L 99.69 -8.56 Z M 87.57 -8.56 Q 87.57 -11.16 88.61 -12.72 Q 89.64 -14.27 91.6 -14.27 L 91.6 -14.27 Q 93.6 -14.27 94.62 -12.7 Q 95.63 -11.13 95.63 -8.56 L 95.63 -8.56 Q 95.63 -5.99 94.6 -4.42 Q 93.57 -2.85 91.6 -2.85 L 91.6 -2.85 Q 89.57 -2.85 88.57 -4.44 Q 87.57 -6.03 87.57 -8.56 L 87.57 -8.56 Z M 108.03 -15 Q 108.95 -16.11 110.15 -16.7 Q 111.36 -17.29 112.72 -17.29 L 112.72 -17.29 Q 113.32 -17.29 114.12 -17.13 L 114.12 -17.13 L 114.12 -13.48 Q 113.16 -13.96 112.15 -13.96 L 112.15 -13.96 Q 110.44 -13.96 109.14 -12.81 L 109.14 -12.81 Q 108.47 -12.21 108.23 -11.47 Q 107.99 -10.72 107.93 -9.67 L 107.93 -9.67 L 107.93 0 L 104.12 0 L 104.12 -17.13 L 107.45 -17.13 L 107.45 -15 L 108.03 -15 Z M 124.23 -11.7 L 117.06 -22.84 L 121.56 -22.84 L 126.57 -14.88 L 131.65 -22.84 L 135.93 -22.84 L 128.79 -11.89 L 136.31 0 L 131.84 0 L 126.41 -8.75 L 120.96 0 L 116.65 0 L 124.23 -11.7 Z" stroke-linecap="round" />
</g>
</g>
</g>
</svg>