<?xml version="1.0" standalone="no"?>
<!DOCTYPE svg PUBLIC "-//W3C//DTD SVG 20010904//EN"
 "http://www.w3.org/TR/2001/REC-SVG-20010904/DTD/svg10.dtd">
<svg version="1.0" xmlns="http://www.w3.org/2000/svg"
 width="1280.000000pt" height="1280.000000pt" viewBox="0 0 1280.000000 1280.000000"
 preserveAspectRatio="xMidYMid meet">
<metadata>
Created by potrace 1.14, written by Peter Selinger 2001-2017
</metadata>
<g transform="translate(0.000000,1280.000000) scale(0.100000,-0.100000)"
fill="#000000" stroke="none">
<path d="M5789 12607 c-131 -37 -241 -152 -270 -282 -7 -33 -17 -63 -22 -66
-5 -4 -30 -10 -56 -14 -25 -3 -53 -8 -61 -10 -109 -21 -153 -31 -260 -57 -265
-63 -406 -105 -636 -188 -92 -33 -168 -60 -170 -60 -1 0 -1 8 0 17 2 9 -1 36
-5 60 -36 192 -228 316 -415 267 -103 -26 -175 -86 -222 -184 -23 -47 -27 -67
-27 -145 1 -101 18 -149 80 -220 19 -22 35 -42 35 -45 0 -3 -14 -11 -31 -19
-17 -7 -79 -41 -137 -74 -435 -244 -824 -523 -1151 -825 -52 -48 -110 -102
-129 -119 l-35 -33 -20 33 c-120 202 -393 233 -550 62 -150 -162 -100 -432 98
-530 22 -10 42 -20 43 -21 2 -2 -41 -60 -96 -131 -291 -375 -490 -694 -690
-1103 l-85 -175 -96 0 c-85 0 -102 -3 -154 -29 -135 -66 -219 -205 -211 -350
6 -114 51 -200 145 -275 l56 -44 -33 -114 c-57 -199 -141 -586 -159 -737 -3
-23 -7 -52 -10 -65 -2 -13 -7 -49 -11 -80 -3 -31 -8 -69 -10 -86 -2 -16 -6
-61 -9 -100 -9 -107 -11 -112 -47 -119 -70 -14 -163 -69 -229 -135 -170 -170
-210 -402 -106 -620 58 -121 196 -239 324 -276 29 -9 54 -19 54 -23 1 -4 3
-23 5 -42 10 -100 30 -245 50 -365 21 -128 22 -132 39 -215 25 -121 26 -124
31 -142 3 -9 7 -25 9 -35 2 -10 9 -40 15 -68 6 -27 13 -75 16 -106 4 -55 3
-57 -24 -67 -70 -24 -124 -105 -128 -191 -6 -131 114 -240 241 -221 l42 6 35
-55 c19 -31 39 -68 43 -81 21 -66 156 -372 231 -522 139 -280 355 -644 476
-803 5 -5 38 -50 75 -100 36 -49 106 -140 154 -201 49 -62 89 -116 89 -120 0
-5 -12 -22 -26 -39 -92 -105 -92 -267 -1 -371 100 -114 264 -132 387 -43 l42
31 51 -49 c28 -26 58 -55 67 -63 177 -172 510 -433 785 -615 276 -183 678
-402 915 -500 36 -14 79 -33 97 -41 181 -82 637 -233 878 -289 39 -9 77 -18
85 -20 40 -10 209 -45 240 -50 19 -3 58 -10 85 -15 74 -14 101 -19 190 -30 44
-6 91 -13 105 -15 14 -2 59 -7 100 -10 41 -4 83 -9 92 -10 131 -26 921 -25
1088 0 14 2 57 6 95 9 67 6 139 15 179 22 11 2 56 8 100 14 120 17 408 76 585
120 85 22 156 39 156 37 1 -1 15 -26 31 -56 39 -74 103 -134 182 -173 61 -30
74 -33 162 -33 86 0 101 3 160 31 77 37 120 71 160 129 74 107 93 234 55 356
-4 11 4 20 27 29 77 31 432 209 550 277 71 40 132 73 136 73 4 0 25 -18 47
-41 78 -82 171 -122 285 -122 127 1 240 55 313 152 59 77 79 140 80 246 0 82
-2 96 -33 159 l-33 70 25 20 c13 12 47 39 74 61 44 37 122 103 134 115 3 3 30
27 60 54 30 27 125 117 210 200 85 83 175 169 200 191 25 23 64 58 87 79 l43
38 48 -30 c72 -44 117 -56 207 -55 172 3 331 148 351 321 14 132 -52 276 -159
346 l-26 17 55 81 c30 44 54 81 54 83 0 2 18 32 40 66 41 66 158 276 204 365
l27 51 62 5 c260 21 392 323 230 525 -18 23 -33 44 -33 48 0 4 22 68 49 143
49 134 120 367 156 507 l18 70 60 2 c181 6 313 187 272 373 -18 84 -113 187
-189 206 -28 7 -28 7 -21 71 3 35 8 72 10 81 3 17 11 92 20 182 26 268 26 802
1 1045 -2 17 -6 62 -10 100 -7 69 -14 127 -21 175 -2 14 -7 45 -10 70 -22 162
-78 445 -125 630 -16 63 -25 117 -21 120 105 68 213 230 235 351 41 221 -25
420 -189 571 -90 84 -276 150 -398 142 -35 -2 -58 1 -65 9 -5 6 -31 55 -58
107 -124 243 -290 512 -470 762 l-62 86 40 39 c21 21 53 67 71 102 27 55 31
76 33 150 2 76 -1 96 -27 157 -94 224 -356 305 -563 174 l-47 -30 -41 37 c-23
21 -51 47 -62 58 -12 11 -69 63 -126 115 -58 52 -112 101 -121 110 -8 8 -50
46 -92 84 -111 99 -151 136 -287 261 -141 130 -258 235 -280 253 l-24 19 21
35 c32 54 45 103 45 171 1 208 -153 368 -357 371 -107 1 -175 -26 -251 -99
-34 -33 -66 -68 -71 -77 -8 -16 -44 -4 -353 111 l-344 129 -2 45 c-7 123 -122
220 -241 203 -91 -12 -158 -69 -184 -154 -7 -23 -14 -42 -17 -42 -3 0 -70 16
-232 55 -22 6 -221 46 -250 51 -14 2 -41 7 -60 10 -19 3 -48 8 -65 11 -16 2
-55 8 -85 13 -30 5 -77 12 -105 15 -27 3 -61 8 -75 10 -14 2 -61 7 -104 10
-44 4 -88 8 -97 10 -42 8 -341 19 -541 19 l-217 1 -31 61 c-63 126 -179 203
-317 210 -46 2 -97 -1 -124 -9z m1026 -361 c126 -6 174 -10 280 -21 28 -2 77
-7 110 -10 33 -3 71 -8 85 -10 14 -3 43 -7 65 -11 194 -27 367 -60 600 -116
136 -32 175 -49 175 -73 0 -8 -42 -59 -94 -112 -131 -138 -193 -203 -308 -324
l-101 -107 -45 29 c-148 94 -359 74 -496 -46 -16 -14 -31 -25 -33 -25 -2 0
-190 140 -418 311 l-414 312 19 37 c11 21 22 55 25 77 4 21 8 47 10 58 2 11 4
23 4 27 2 14 283 16 536 4z m-1285 -138 c12 -35 40 -84 62 -111 l39 -47 -172
-243 c-95 -133 -187 -262 -203 -287 -50 -72 -46 -70 -105 -50 -61 20 -173 19
-198 -2 -9 -7 -19 -12 -22 -11 -10 3 -70 -28 -82 -43 -10 -12 -17 -10 -48 13
-20 15 -41 32 -47 38 -6 5 -117 98 -248 205 -130 107 -236 199 -236 206 0 20
33 51 70 64 19 7 49 19 65 26 97 40 368 128 550 178 143 39 362 89 443 102 33
5 105 20 108 23 1 1 11 -27 24 -61z m1060 -456 c223 -168 407 -306 408 -308 2
-1 -3 -15 -12 -31 -20 -37 -47 -133 -40 -144 3 -5 2 -9 -3 -10 -14 -1 -583
-19 -768 -23 -43 -1 -43 0 -60 104 -6 42 -12 74 -21 113 -3 16 -7 38 -9 50 -1
12 -5 38 -9 57 -3 19 -18 98 -32 175 -14 77 -28 158 -31 180 -3 22 -7 42 -9
44 -2 3 22 17 53 32 32 16 69 39 83 52 14 14 30 22 35 19 6 -3 192 -143 415
-310z m2191 155 c74 -30 175 -74 224 -97 50 -23 112 -53 140 -65 l49 -23 -39
-10 c-72 -19 -210 -54 -220 -56 -5 -1 -90 -21 -188 -45 -97 -24 -179 -42 -180
-40 -9 10 -143 459 -139 463 5 6 186 -59 353 -127z m-496 101 c60 -13 55 -9
65 -50 5 -18 36 -118 68 -223 l60 -190 -271 -68 c-150 -37 -281 -69 -292 -71
-20 -4 -95 -23 -127 -32 -13 -4 -24 8 -42 45 -14 27 -30 52 -36 56 -5 3 -10
12 -10 19 0 14 20 36 270 296 91 95 179 188 195 207 22 25 35 32 50 28 11 -4
43 -11 70 -17z m-2500 -41 c28 -9 68 -17 90 -19 l40 -3 12 -65 c6 -36 15 -87
18 -115 4 -27 8 -53 10 -56 2 -3 15 -70 29 -150 14 -79 28 -155 30 -169 12
-60 25 -154 23 -156 -2 -2 -430 -15 -572 -18 -82 -1 -90 1 -93 19 -6 33 -34
88 -64 127 l-28 36 201 284 c231 324 228 321 243 309 6 -4 34 -16 61 -24z
m3334 -93 c39 -15 71 -30 71 -35 0 -13 1 -13 -81 26 -89 41 -85 44 10 9z
m-4768 -194 c36 -30 85 -71 109 -90 24 -19 48 -40 54 -45 13 -12 224 -185 245
-201 13 -10 12 -18 -7 -62 -12 -27 -23 -69 -25 -93 -4 -47 -12 -52 -107 -65
-25 -3 -47 -8 -50 -9 -3 -2 -26 -6 -50 -10 -25 -3 -65 -11 -90 -16 -25 -6 -67
-15 -95 -19 -59 -11 -64 -12 -266 -50 -206 -39 -199 -40 -188 9 5 21 11 60 13
85 3 26 8 61 10 79 8 48 16 106 22 157 3 25 7 56 9 70 2 14 7 48 11 75 3 28 8
58 10 69 2 10 6 44 10 75 3 31 8 58 11 61 2 2 32 10 65 17 37 7 82 26 112 46
l51 34 40 -31 c22 -17 69 -56 106 -86z m-469 45 c2 -3 -1 -44 -8 -93 -8 -48
-15 -103 -18 -122 -2 -19 -9 -72 -16 -117 -6 -46 -12 -95 -14 -110 -6 -46 -18
-126 -22 -153 -2 -14 -6 -45 -9 -70 -11 -86 -16 -100 -36 -101 -10 -1 -22 -2
-26 -3 -5 -1 -30 -6 -58 -11 -27 -4 -54 -9 -60 -11 -5 -1 -73 -13 -150 -28
-77 -14 -151 -28 -165 -31 -14 -3 -50 -9 -80 -15 -30 -6 -66 -12 -80 -15 -14
-3 -50 -9 -80 -15 -30 -6 -66 -12 -80 -15 -14 -3 -50 -9 -80 -15 -30 -6 -65
-12 -78 -14 -12 -3 -85 -17 -162 -31 -77 -14 -150 -28 -162 -31 -99 -19 -97
-23 -26 42 310 284 650 540 968 729 36 21 76 45 90 54 54 33 331 181 341 181
3 0 8 -2 11 -5z m5348 -141 c13 -26 49 -69 80 -96 l57 -50 -135 -326 c-74
-180 -139 -333 -144 -339 -8 -10 -15 -10 -32 -1 -12 7 -66 12 -134 12 l-112 0
-49 155 c-27 86 -68 217 -91 291 -22 74 -50 161 -60 192 l-18 57 81 20 c325
79 466 114 492 121 17 4 32 8 35 9 3 1 16 -20 30 -45z m-685 -259 c20 -66 50
-160 65 -210 72 -230 110 -353 110 -358 0 -3 -26 -20 -57 -38 -32 -18 -83 -58
-115 -89 l-56 -57 -334 209 c-183 115 -350 220 -370 233 l-37 25 15 37 c19 44
25 80 27 151 l2 54 280 69 c154 38 312 78 350 88 39 10 73 16 77 12 3 -3 23
-60 43 -126z m1302 12 c120 -80 294 -206 358 -259 246 -201 264 -217 468 -411
98 -94 136 -135 131 -146 -15 -35 -42 -118 -48 -143 -6 -28 -6 -28 -99 -29
-50 -1 -126 -2 -167 -4 -41 -2 -179 -6 -307 -10 -218 -6 -231 -5 -236 12 -7
22 -136 544 -142 570 -2 10 -31 126 -64 258 -32 132 -57 243 -55 247 9 15 23
8 161 -85z m-305 59 c26 0 49 -5 52 -11 2 -7 43 -169 91 -361 47 -192 104
-419 125 -504 21 -85 40 -164 42 -174 3 -23 18 -21 -227 -30 l-160 -6 -18 67
c-10 37 -30 92 -45 122 -30 62 -148 188 -199 212 l-32 15 66 159 c36 88 71
174 78 190 7 17 23 55 35 85 12 30 28 69 35 85 7 17 25 61 40 98 24 60 30 67
49 61 11 -4 42 -8 68 -8z m-2600 -236 c4 -5 25 -79 34 -115 4 -16 -15 -32 -98
-86 -57 -37 -188 -123 -293 -191 -104 -68 -195 -127 -202 -131 -7 -5 -29 3
-50 17 -21 14 -52 28 -70 32 -36 7 -33 -1 -68 204 -8 47 -17 103 -20 125 -4
22 -11 57 -16 79 -6 21 -8 41 -5 44 8 7 43 9 371 17 148 4 271 7 272 8 4 4
142 1 145 -3z m-873 -82 c12 -63 28 -157 37 -213 2 -16 9 -52 15 -80 5 -27 12
-60 15 -72 3 -17 -3 -26 -28 -39 -18 -9 -42 -25 -53 -35 -21 -18 -25 -16 -358
184 l-336 202 6 35 c3 19 6 41 6 48 0 6 1 12 1 13 1 0 84 3 186 6 102 3 186 6
187 6 1 1 71 3 156 5 l155 3 11 -63z m-1319 -32 c0 -7 -454 -266 -466 -266 -4
0 -15 -6 -23 -14 -9 -7 -46 -30 -83 -50 l-66 -36 -52 50 c-50 49 -153 110
-185 110 -9 0 -15 9 -15 24 0 25 -1 24 150 51 8 2 87 17 175 34 529 102 565
108 565 97z m55 -95 c4 -8 -64 -97 -120 -157 -5 -6 -28 -32 -50 -59 -22 -26
-80 -95 -128 -151 l-89 -104 -119 0 c-88 0 -119 3 -120 13 -2 31 -11 72 -19
87 -8 15 15 31 148 106 86 49 166 94 177 101 11 7 29 16 40 21 11 6 60 33 108
61 49 28 92 51 95 51 4 0 18 9 32 20 28 22 36 24 45 11z m2970 -36 c94 -60
605 -380 633 -396 32 -18 32 -25 7 -107 l-20 -62 -70 5 c-38 3 -99 8 -135 11
-36 3 -85 7 -110 9 -25 2 -76 6 -115 9 -139 11 -221 18 -260 21 -51 5 -208 17
-260 20 -39 3 -149 11 -250 20 -27 3 -79 7 -115 10 -36 3 -90 7 -120 10 -30 2
-93 7 -140 10 -47 4 -101 8 -120 10 -19 2 -73 7 -120 10 -136 10 -159 17 -160
48 0 9 601 407 615 407 2 0 23 -18 47 -41 49 -46 142 -93 208 -105 132 -23
263 16 366 109 27 25 54 42 59 39 6 -3 33 -20 60 -37z m-2353 -32 c62 -37 121
-72 130 -78 302 -178 428 -260 428 -276 0 -11 -3 -19 -7 -20 -15 -2 -306 -8
-748 -14 -247 -4 -501 -8 -562 -9 -62 -1 -113 0 -113 3 0 4 10 17 23 31 12 14
83 97 156 185 74 88 137 163 141 168 3 4 29 -3 56 -15 74 -33 190 -31 264 5
31 14 69 40 85 57 16 16 30 30 32 30 1 0 53 -30 115 -67z m-1655 -19 c-3 -3
-12 -4 -19 -1 -8 3 -5 6 6 6 11 1 17 -2 13 -5z m-215 -55 c-97 -48 -196 -169
-217 -267 l-7 -33 -86 6 c-48 3 -105 8 -127 10 -22 2 -76 7 -120 11 -90 7
-141 11 -235 19 -184 16 -276 24 -365 31 -44 3 -81 7 -83 9 -2 2 30 8 70 15
40 7 82 14 93 16 42 9 181 36 205 40 14 3 70 13 125 24 55 10 116 22 135 25
19 3 42 8 50 10 8 2 31 6 50 9 19 3 46 8 60 11 14 3 50 9 80 15 30 6 66 12 80
15 98 19 138 27 155 30 75 12 104 18 135 25 63 15 64 10 2 -21z m-1052 -324
c19 -2 73 -6 120 -10 47 -3 105 -8 130 -10 61 -7 128 -12 230 -20 47 -3 101
-8 120 -10 19 -2 73 -7 120 -10 47 -4 88 -9 91 -11 4 -2 10 -25 14 -51 17
-115 93 -237 183 -294 26 -16 47 -33 47 -37 0 -7 -71 -203 -86 -237 -5 -11
-22 -58 -39 -105 -17 -47 -34 -94 -39 -105 -5 -11 -19 -47 -31 -80 -11 -33
-24 -69 -29 -80 -5 -11 -14 -33 -20 -48 -10 -26 -15 -28 -50 -24 -56 6 -146
-10 -194 -35 l-41 -21 -29 34 c-15 19 -72 90 -126 159 -54 69 -177 226 -275
350 -98 124 -225 285 -283 359 l-105 135 17 25 c9 14 29 52 43 84 l27 58 85
-6 c47 -3 101 -8 120 -10z m3474 -76 c3 -3 -179 -96 -404 -207 -225 -112 -770
-382 -1212 -602 -443 -219 -810 -400 -818 -402 -7 -2 -20 9 -29 24 -15 26 -14
27 49 100 36 41 74 86 85 99 70 85 231 275 235 279 3 3 53 61 110 130 58 69
158 188 223 265 66 77 138 163 162 190 23 28 53 62 66 78 l24 27 220 5 c121 2
418 7 660 10 242 4 441 8 442 8 4 5 182 1 187 -4z m581 -3 c50 -4 108 -9 130
-11 22 -2 76 -7 120 -10 204 -15 331 -25 380 -30 22 -3 76 -7 120 -10 44 -3
107 -8 140 -11 71 -6 118 -10 240 -19 50 -4 106 -9 125 -11 19 -2 78 -6 130
-9 52 -3 106 -8 120 -10 14 -2 68 -6 120 -10 123 -8 192 -15 200 -20 4 -2 7
-21 8 -42 4 -112 64 -250 145 -333 33 -35 86 -80 92 -80 3 0 24 -12 46 -26 52
-33 176 -64 253 -64 126 0 266 53 352 132 l43 40 243 -193 c134 -106 248 -198
254 -204 7 -5 34 -27 62 -49 l50 -39 -24 -53 c-31 -71 -29 -196 5 -266 51
-104 172 -188 273 -188 23 0 26 -6 48 -102 13 -57 25 -108 26 -115 1 -6 11
-51 23 -100 11 -48 22 -99 25 -113 2 -14 18 -83 34 -155 17 -71 28 -133 26
-137 -3 -4 -20 -15 -39 -23 -18 -9 -52 -35 -75 -58 -146 -148 -122 -391 52
-506 53 -36 78 -46 143 -55 11 -2 21 -11 21 -22 4 -60 16 -235 19 -269 1 -22
6 -85 9 -140 4 -55 9 -120 11 -145 2 -25 7 -85 10 -135 3 -49 8 -117 10 -150
6 -78 13 -169 20 -280 3 -49 8 -113 10 -140 3 -28 7 -89 10 -135 3 -47 7 -112
10 -145 3 -33 7 -95 10 -139 3 -43 7 -106 10 -140 15 -201 16 -213 3 -213 -70
-2 -194 -67 -268 -143 -101 -102 -150 -228 -145 -376 3 -119 46 -227 125 -316
l42 -48 -128 -172 c-70 -95 -168 -228 -217 -294 l-90 -122 -56 19 c-247 85
-493 -155 -413 -403 l17 -53 -117 -80 c-65 -44 -171 -116 -235 -160 -65 -44
-148 -102 -185 -128 l-68 -48 -27 26 c-46 42 -125 76 -199 83 l-67 7 59 39
c53 35 261 191 274 205 3 3 43 40 90 81 393 345 730 804 940 1280 120 272 236
657 265 880 3 25 8 52 10 60 5 19 22 160 32 265 15 157 6 663 -12 735 -2 8 -7
40 -10 70 -3 30 -13 93 -21 140 -9 47 -18 96 -21 110 -9 57 -86 346 -93 355
-5 6 -9 15 -10 20 -5 42 -95 293 -111 309 -5 6 -9 16 -9 24 0 14 -134 287
-185 377 -93 165 -264 413 -361 525 -12 14 -41 48 -64 75 -103 122 -297 311
-455 444 -332 279 -785 527 -1210 664 -187 60 -437 120 -590 141 -230 32 -318
39 -550 39 -255 1 -478 -17 -660 -53 -81 -16 -108 -21 -140 -26 -56 -10 -260
-66 -375 -104 -420 -138 -834 -363 -1175 -640 -162 -131 -338 -300 -463 -445
-48 -55 -90 -102 -93 -105 -13 -12 -160 -211 -208 -283 -155 -230 -308 -532
-403 -796 l-31 -84 -17 54 c-34 110 -90 199 -182 292 l-89 88 54 92 c30 51 65
112 79 137 77 138 223 387 233 398 10 11 18 11 46 -1 96 -39 257 -8 349 68
110 91 149 209 126 375 l-6 45 197 97 c159 77 1377 681 2100 1040 l142 71 41
-36 c117 -100 312 -47 359 96 9 25 17 35 29 32 9 -1 58 -6 107 -9z m-2226 -33
c-37 -44 -126 -150 -145 -173 -50 -58 -381 -449 -423 -500 -25 -30 -55 -65
-66 -77 -11 -13 -74 -88 -140 -167 -66 -79 -125 -147 -131 -149 -6 -3 -17 -2
-24 3 -10 6 -3 33 30 121 24 63 54 143 67 179 13 36 51 137 84 226 l61 161 82
-3 c92 -3 155 10 234 50 97 49 189 166 212 270 6 28 13 56 15 62 2 7 34 12 81
13 74 2 77 1 63 -16z m-2124 -183 c37 -47 80 -101 96 -121 15 -20 107 -137
204 -260 97 -123 237 -302 312 -397 l135 -173 -27 -34 c-41 -55 -65 -118 -72
-191 -3 -36 -11 -67 -17 -69 -52 -16 -620 -134 -624 -130 -7 7 -10 21 -17 95
-3 30 -8 66 -10 80 -2 14 -7 56 -11 95 -3 38 -7 77 -9 87 -2 9 -7 48 -10 85
-4 37 -9 75 -10 83 -2 8 -6 51 -11 95 -4 44 -8 82 -9 85 -1 3 -5 41 -9 85 -5
44 -10 88 -12 97 -1 9 -6 48 -9 85 -4 37 -8 75 -10 83 -2 8 -7 49 -10 90 -3
41 -8 82 -10 90 -2 8 -7 48 -10 87 -4 40 -8 81 -9 90 -2 13 9 23 38 34 23 9
44 16 47 15 4 0 37 -39 74 -86z m8568 14 c10 -31 31 -76 47 -100 l30 -43 -92
-108 c-51 -59 -107 -124 -124 -143 -17 -19 -66 -75 -109 -125 -169 -196 -157
-185 -179 -173 -33 18 -118 35 -158 32 -43 -4 -38 -16 -97 221 -36 147 -50
203 -57 230 -53 206 -57 226 -48 235 5 5 117 11 249 15 132 4 241 7 242 8 1 1
64 3 140 5 l138 2 18 -56z m-877 -30 c9 -32 18 -68 20 -79 2 -11 35 -146 73
-300 l70 -280 -27 -22 c-33 -28 -46 -28 -74 -4 -13 11 -148 119 -300 241 -153
121 -278 223 -278 227 0 3 9 20 19 37 24 39 51 118 58 171 3 22 8 44 12 48 4
4 95 10 202 13 107 4 196 8 198 10 7 7 11 -1 27 -62z m-7938 29 c-1 -17 8
-106 17 -168 3 -16 7 -57 11 -90 9 -91 11 -107 18 -166 3 -30 8 -76 11 -104 3
-27 7 -66 10 -85 3 -19 7 -57 10 -85 7 -68 15 -133 20 -175 3 -19 7 -62 10
-95 5 -54 9 -85 20 -165 2 -14 7 -54 10 -90 4 -36 10 -93 14 -128 l7 -62 -35
-9 c-20 -5 -153 -35 -296 -67 -143 -31 -325 -71 -404 -89 l-144 -31 -29 57
c-26 52 -116 149 -138 149 -12 0 16 64 114 260 169 337 408 715 620 981 34 42
72 91 86 109 23 31 60 70 66 70 2 0 2 -8 2 -17z m8997 -220 c19 -9 35 -21 35
-26 0 -6 -30 -123 -66 -261 -36 -138 -68 -257 -70 -266 -1 -8 -25 -98 -52
-200 -54 -205 -47 -196 -127 -160 -22 10 -66 28 -98 40 -48 19 -57 26 -51 42
9 30 6 112 -6 157 -6 22 -26 62 -44 90 l-34 50 115 133 c63 73 131 152 151
175 21 22 75 86 122 141 47 56 86 101 87 101 1 1 18 -7 38 -16z m451 -313
c226 -456 335 -682 332 -690 -2 -4 -30 -30 -64 -58 -65 -53 -115 -111 -135
-155 -7 -15 -16 -27 -20 -27 -5 0 -38 12 -74 26 -41 17 -65 32 -66 43 -2 22
-5 49 -12 96 -3 22 -13 96 -22 165 -9 69 -18 136 -20 150 -2 14 -7 52 -10 85
-3 33 -7 67 -10 75 -2 8 -6 38 -10 65 -3 28 -10 85 -16 127 -13 99 -15 121
-24 188 -3 30 -11 84 -16 119 -8 50 -7 66 3 72 7 5 16 5 20 1 4 -4 68 -131
144 -282z m-262 230 c3 -19 8 -55 11 -80 4 -25 8 -58 10 -75 3 -16 9 -66 14
-110 20 -157 23 -180 26 -197 2 -9 7 -48 10 -85 4 -37 9 -70 10 -73 2 -3 6
-34 10 -70 3 -36 8 -72 10 -80 2 -8 7 -40 10 -70 3 -30 8 -66 10 -80 2 -14 7
-50 10 -80 4 -30 10 -59 13 -64 3 -5 -1 -7 -9 -4 -8 3 -108 43 -224 89 -115
45 -211 83 -213 84 -3 3 41 177 111 445 24 91 63 238 87 327 l42 162 29 -2
c24 -2 29 -7 33 -37z m468 -400 c118 -190 261 -457 252 -471 -11 -19 -40 -8
-50 19 -6 15 -73 151 -148 302 -76 151 -134 271 -128 265 5 -5 38 -57 74 -115z
m-1032 -489 c30 -12 64 -25 75 -30 11 -5 32 -13 46 -19 l26 -10 -43 -164 c-71
-277 -154 -591 -157 -594 -4 -4 -31 -6 -52 -5 -12 0 -21 9 -22 19 -1 9 -16 78
-33 152 -17 74 -34 146 -36 160 -3 14 -16 71 -29 128 -14 56 -27 113 -29 125
-2 12 -9 42 -15 67 -15 64 -15 63 33 83 42 17 136 99 136 118 0 5 10 5 23 0
12 -5 47 -19 77 -30z m525 -207 c104 -41 190 -76 191 -77 3 -3 13 -79 29 -207
10 -80 16 -126 20 -150 2 -14 7 -45 10 -70 5 -46 5 -46 -32 -59 -21 -7 -51
-19 -68 -27 -16 -7 -131 -54 -254 -103 l-223 -91 -21 28 c-32 41 -77 82 -109
98 -15 8 -28 20 -28 26 0 7 16 73 36 147 20 75 38 145 40 155 2 10 14 58 28
105 13 47 39 143 57 213 l33 126 50 -20 c28 -11 136 -53 241 -94z m-8211 9
c13 -27 41 -65 61 -86 l37 -38 -44 -77 c-278 -482 -331 -572 -337 -572 -5 0
-21 7 -37 15 -46 22 -153 47 -217 50 -32 1 -62 6 -67 11 -5 5 -12 38 -15 74
-5 62 -9 100 -20 180 -2 19 -7 63 -11 97 -3 35 -8 75 -10 90 -2 16 -6 58 -10
94 l-6 66 64 13 c34 7 68 14 73 16 6 1 40 9 76 18 37 8 80 18 95 20 32 6 123
26 249 55 44 11 83 19 87 20 4 1 19 -20 32 -46z m-760 -187 c3 -37 11 -98 16
-135 5 -36 12 -100 16 -141 3 -41 8 -77 9 -80 2 -3 6 -44 10 -91 l7 -86 -35
-7 c-98 -18 -228 -90 -314 -173 -35 -34 -50 -43 -63 -36 -10 4 -144 100 -298
212 l-280 204 20 45 c11 25 22 70 25 101 3 31 8 59 12 62 5 6 46 16 226 54 11
2 83 18 160 35 77 18 151 34 165 36 14 3 41 9 60 14 19 5 51 12 70 15 19 3 69
14 110 24 41 10 76 17 76 17 1 -1 4 -32 8 -70z m9344 28 c2 -2 -2 -29 -9 -61
-14 -69 -15 -181 0 -243 7 -33 7 -46 -2 -52 -6 -4 -13 -6 -15 -4 -5 5 -18 83
-28 171 -3 28 -7 57 -9 65 -2 8 -7 48 -10 88 l-7 72 39 -17 c21 -10 40 -18 41
-19z m-10030 -652 l291 -213 -28 -57 c-94 -185 -99 -407 -15 -584 l22 -47
-144 -92 c-80 -50 -147 -90 -149 -87 -3 2 -18 47 -34 99 -16 52 -79 252 -141
444 -61 193 -131 415 -156 495 -25 80 -49 153 -54 162 -8 14 1 24 48 56 31 22
59 39 62 38 3 0 137 -97 298 -214z m10082 186 c0 -18 80 -116 132 -162 29 -25
77 -58 108 -73 30 -16 57 -29 59 -30 5 -3 -3 -32 -93 -343 -42 -146 -83 -288
-91 -316 -13 -45 -18 -51 -37 -47 -17 3 -24 12 -25 33 -2 25 -25 201 -40 305
-3 22 -7 51 -8 65 -4 34 -14 112 -20 152 -2 18 -9 71 -15 118 -6 47 -13 101
-16 121 -2 20 -7 54 -9 75 -3 22 -7 55 -10 75 -5 30 -2 37 17 46 23 11 48 1
48 -19z m-157 -50 c3 -13 15 -95 27 -183 11 -88 22 -176 25 -195 3 -19 7 -53
10 -75 18 -151 37 -294 41 -315 2 -14 6 -45 9 -70 3 -25 8 -55 11 -68 4 -19
-3 -26 -40 -42 -93 -39 -167 -130 -191 -234 l-11 -49 -265 354 -266 354 37 55
c47 70 60 117 57 200 l-3 67 270 111 c149 60 274 110 277 111 4 1 9 -9 12 -21z
m-10390 -133 c19 -60 61 -191 92 -290 31 -99 76 -241 100 -315 138 -430 166
-523 162 -533 -4 -11 -309 -207 -322 -207 -3 0 -20 16 -37 36 -87 99 -234 166
-366 168 l-44 1 6 85 c4 47 9 94 11 105 2 11 6 45 9 75 3 30 8 66 10 80 3 14
7 43 10 65 7 58 34 208 52 295 9 41 18 86 20 100 8 40 42 174 80 315 l36 131
73 -1 73 0 35 -110z m11347 -230 c39 -163 77 -356 95 -480 3 -23 7 -50 9 -61
4 -18 7 -43 21 -154 2 -14 7 -56 10 -95 4 -38 9 -86 11 -105 23 -208 23 -833
0 -995 -4 -24 -13 -116 -21 -205 -5 -64 -18 -141 -23 -144 -4 -2 -23 -6 -42
-10 l-35 -6 -64 122 c-35 68 -81 155 -101 193 -21 39 -75 142 -120 230 -46 88
-86 165 -90 170 -4 6 -51 94 -104 198 l-98 187 46 51 c64 71 89 143 84 239 -7
113 -54 193 -150 258 -21 13 -38 27 -38 31 0 3 10 35 21 71 11 36 31 103 44
150 35 125 114 400 126 437 l10 32 87 -3 c86 -3 182 12 244 37 40 17 36 25 78
-148z m-1038 -1070 c48 -59 97 -128 94 -134 -2 -3 -20 -42 -41 -86 -82 -180
-140 -301 -151 -318 -10 -15 -13 -11 -29 30 -9 27 -52 140 -95 253 -43 113
-115 302 -160 420 -45 118 -99 262 -121 320 -22 58 -54 141 -71 185 -33 87
-40 106 -57 148 -6 15 -11 30 -11 33 0 2 143 -186 317 -418 175 -233 321 -427
325 -433z m-594 462 c74 -193 138 -361 143 -372 11 -24 231 -603 266 -699 l25
-68 -68 -147 c-37 -80 -92 -198 -122 -261 -30 -63 -58 -125 -63 -137 -9 -26
-19 -27 -68 -13 -18 5 -51 10 -72 12 -34 2 -39 5 -40 27 0 15 -2 37 -4 51 -1
14 -6 78 -9 143 -4 65 -9 125 -10 135 -2 9 -7 71 -11 137 -4 66 -9 138 -11
160 -2 22 -6 85 -10 140 -3 55 -7 116 -9 135 -1 19 -6 82 -10 140 -3 58 -8
123 -11 145 -2 22 -6 85 -9 140 -4 55 -8 116 -10 135 -2 19 -6 82 -10 140 -4
58 -8 121 -10 140 -2 19 -6 84 -10 145 -4 60 -9 113 -11 117 -3 5 -2 8 3 8 4
0 68 -159 141 -353z m-8888 -195 c25 -26 65 -63 89 -83 l44 -37 -152 -273
c-84 -151 -156 -277 -160 -281 -4 -5 -19 29 -33 75 -15 45 -52 162 -83 259
-31 97 -55 183 -53 189 3 10 282 195 298 198 3 1 26 -20 50 -47z m1025 -34
c-3 -24 -7 -54 -10 -68 -22 -149 -29 -254 -29 -485 0 -188 8 -365 19 -427 2
-9 6 -45 10 -79 4 -35 8 -66 10 -69 1 -3 6 -27 9 -55 34 -255 160 -659 296
-950 40 -86 160 -307 200 -370 11 -16 23 -37 27 -45 4 -8 38 -59 76 -115 575
-833 1444 -1394 2427 -1569 79 -14 149 -24 210 -31 159 -17 231 -20 450 -20
289 1 352 5 597 46 138 22 132 21 233 44 122 27 378 104 465 140 168 69 279
118 383 170 67 34 122 61 122 60 0 -1 -11 -27 -25 -57 -13 -29 -26 -73 -28
-98 -4 -50 10 -140 24 -155 22 -22 4 -45 -88 -112 -54 -39 -314 -226 -577
-417 l-479 -346 -29 29 c-105 107 -294 161 -442 127 -131 -31 -274 -142 -326
-253 -14 -29 -27 -53 -30 -53 -3 0 -243 63 -535 140 -291 77 -560 148 -597
157 l-67 17 1 41 c1 93 -36 178 -107 244 -65 60 -124 84 -215 87 -106 3 -166
-22 -248 -103 l-62 -63 -68 25 c-37 14 -76 29 -87 34 -11 5 -56 23 -100 39
-387 147 -461 175 -466 181 -4 3 -9 43 -11 87 -8 142 -76 247 -203 310 -121
60 -245 54 -357 -15 l-49 -31 -252 207 c-139 114 -258 213 -265 220 -7 7 -22
19 -32 26 -19 13 -19 15 5 73 30 74 29 183 -3 254 -53 120 -191 211 -309 205
-18 -1 -33 1 -33 5 0 4 -25 117 -55 251 -30 134 -67 296 -81 359 -14 63 -27
120 -29 127 -2 6 20 23 48 37 29 14 73 46 98 70 140 139 161 349 52 513 -42
63 -90 103 -169 140 -33 16 -59 33 -58 38 0 11 17 137 19 145 1 3 5 30 9 60 5
30 10 64 12 74 2 11 6 42 9 70 3 28 8 58 10 66 2 8 7 35 10 60 13 105 32 239
40 280 2 14 7 45 10 70 3 25 10 70 15 100 5 30 12 78 15 105 4 28 8 57 10 65
2 8 7 40 10 70 4 30 10 70 13 89 l8 35 64 1 c85 2 212 31 275 62 63 32 161
102 199 142 17 17 31 31 33 31 1 0 0 -19 -2 -42z m-722 -161 l58 -20 -5 -46
c-3 -25 -7 -55 -10 -66 -2 -11 -7 -49 -11 -85 -4 -36 -8 -67 -10 -70 -2 -3 -6
-30 -10 -60 -4 -30 -9 -64 -10 -75 -6 -41 -56 -381 -60 -405 -2 -14 -6 -43
-10 -65 -3 -22 -10 -67 -15 -100 -5 -33 -12 -82 -16 -110 -3 -27 -8 -59 -10
-70 -2 -10 -6 -37 -9 -60 -13 -91 -12 -90 -60 -92 l-44 -2 -66 207 c-37 114
-87 270 -111 347 -25 77 -46 147 -46 155 -1 13 263 493 304 555 8 11 22 37 33
58 14 26 24 35 35 31 8 -4 41 -16 73 -27z m-716 -74 c11 -38 51 -160 86 -273
36 -113 69 -217 72 -232 6 -23 -13 -64 -114 -244 -67 -119 -121 -221 -121
-226 0 -12 -39 20 -169 141 -57 53 -112 103 -122 112 -18 16 -18 18 16 74 34
57 59 122 70 180 6 36 7 152 1 180 -11 51 -29 112 -41 135 -12 24 -11 27 18
47 66 44 272 173 277 173 3 0 15 -30 27 -67z m10353 -225 c29 -57 72 -139 95
-183 59 -111 130 -247 210 -400 37 -71 72 -136 78 -142 5 -7 7 -13 4 -13 -14
0 -425 560 -430 586 -4 16 -9 48 -12 72 -13 104 -16 128 -21 144 -6 19 2 38
15 38 4 0 32 -46 61 -102z m-188 83 c20 -8 25 -17 27 -57 1 -27 0 -46 -2 -44
-78 101 -84 124 -25 101z m-20 -188 c53 -70 78 -113 82 -140 8 -58 16 -114 22
-158 9 -77 13 -108 18 -144 3 -20 10 -74 16 -121 6 -47 13 -96 15 -110 11 -81
17 -128 20 -155 2 -16 5 -48 9 -70 12 -91 27 -203 32 -247 6 -54 13 -51 -151
-73 l-40 -6 -48 128 c-27 70 -70 184 -97 253 -27 69 -71 188 -100 265 -28 77
-58 155 -66 173 -27 58 -34 36 143 411 29 63 57 110 62 105 4 -5 42 -55 83
-111z m456 -607 l239 -318 -33 -50 c-19 -28 -39 -74 -45 -107 l-12 -58 -97
-12 c-53 -7 -108 -14 -121 -16 -13 -2 -36 -6 -51 -9 -23 -4 -28 -1 -29 17 0
12 -2 31 -4 42 -3 11 -7 43 -10 70 -3 28 -7 61 -9 75 -4 31 -9 67 -36 275 -11
88 -23 171 -25 185 -2 14 -6 48 -10 75 -11 98 -16 140 -22 160 -5 18 -4 18 10
5 9 -8 124 -158 255 -334z m-10338 109 c4 -11 12 -36 18 -55 6 -19 36 -115 67
-213 32 -99 53 -182 49 -186 -61 -50 -85 -62 -102 -49 -20 15 -12 8 -143 129
-57 53 -119 110 -137 126 l-34 31 98 173 c53 96 104 185 112 198 14 24 15 23
39 -55 14 -43 29 -88 33 -99z m-691 36 c23 -20 170 -154 247 -227 24 -22 44
-43 44 -47 0 -4 -50 -97 -112 -207 -70 -125 -114 -196 -119 -188 -4 7 -18 45
-32 83 -14 39 -43 120 -65 180 -22 61 -58 160 -80 222 l-40 112 41 25 c23 13
53 34 66 45 29 25 23 25 50 2z m10265 -146 c70 -187 171 -452 205 -540 17 -43
28 -82 23 -86 -4 -4 -32 -10 -62 -14 -30 -4 -90 -12 -132 -19 l-77 -12 -11 30
c-43 117 -97 190 -203 273 l-28 22 22 48 c12 26 45 98 74 158 28 61 69 147 90
193 21 45 42 79 46 75 4 -5 28 -62 53 -128z m-10472 -58 c20 -56 48 -136 63
-177 14 -41 30 -84 35 -95 20 -46 110 -304 110 -315 0 -6 -17 -42 -39 -78 -21
-37 -49 -87 -63 -112 -67 -120 -90 -160 -97 -160 -12 0 -41 132 -46 215 -12
179 -15 232 -20 285 -2 30 -7 91 -10 135 -3 44 -7 105 -10 135 -19 266 -19
258 6 263 13 2 26 5 29 6 3 0 22 -45 42 -102z m592 -149 c13 -13 181 -168 249
-231 l39 -35 -26 -44 c-33 -56 -55 -154 -49 -215 3 -26 6 -57 7 -67 1 -16 -31
-33 -191 -97 l-192 -77 -26 72 c-15 39 -35 94 -45 121 -10 28 -25 68 -33 89
-14 38 -13 42 13 85 23 40 137 241 200 356 30 55 31 55 36 55 3 0 11 -6 18
-12z m10851 -487 c17 -25 51 -61 76 -79 l45 -34 -39 -142 c-44 -162 -105 -355
-149 -472 l-30 -81 -39 13 c-21 8 -52 15 -69 16 -19 1 -30 8 -31 18 0 8 -2 24
-4 35 -2 11 -11 74 -20 140 -8 66 -17 134 -20 150 -2 17 -16 122 -30 235 -14
113 -28 210 -30 217 -5 14 45 25 230 49 28 3 52 8 55 11 3 2 9 -3 15 -13 5 -9
24 -37 40 -63z m-431 2 c3 -10 10 -56 16 -103 5 -47 12 -96 14 -110 2 -14 7
-51 11 -84 4 -32 8 -68 10 -80 2 -11 6 -43 10 -71 3 -27 12 -95 20 -149 16
-103 15 -127 -3 -79 -24 66 -223 590 -232 608 -24 54 -22 61 17 64 21 1 56 6
78 11 22 4 43 8 47 9 4 0 9 -7 12 -16z m-235 -111 c18 -48 48 -125 66 -172 18
-47 67 -177 109 -290 42 -113 81 -213 86 -222 6 -10 10 -19 10 -22 0 -8 -79
-55 -82 -47 -2 4 -133 110 -293 235 -159 126 -295 234 -302 240 -8 8 -5 23 13
61 34 67 54 148 54 212 0 29 3 52 8 51 4 -1 32 1 62 6 30 4 71 10 90 13 44 6
133 20 140 22 3 0 20 -38 39 -87z m-10474 -91 c20 -57 33 -107 28 -111 -4 -5
-50 -25 -101 -46 l-94 -37 -21 21 c-22 23 -22 23 25 107 13 22 43 75 67 119
30 53 46 74 51 65 4 -8 24 -61 45 -118z m560 -28 c3 -10 22 -36 42 -58 80 -85
191 -137 294 -137 54 1 56 0 64 -49 3 -19 11 -52 17 -74 5 -22 12 -51 15 -65
4 -22 8 -42 28 -130 2 -8 10 -44 19 -80 8 -36 17 -76 20 -90 2 -14 16 -75 30
-137 14 -61 26 -116 26 -122 0 -6 -17 -19 -37 -30 -21 -11 -52 -34 -70 -50
l-32 -31 -158 98 c-87 54 -227 140 -312 192 -120 73 -156 100 -166 124 -7 17
-49 130 -93 251 -44 121 -83 227 -86 235 -5 12 4 20 31 32 109 45 340 136 350
137 6 0 14 -7 18 -16z m-445 -290 c24 -65 58 -158 76 -206 18 -49 27 -86 21
-84 -11 4 -66 38 -299 182 l-58 35 6 57 c4 32 7 58 8 59 0 0 42 16 91 36 50
20 95 37 101 37 7 1 31 -52 54 -116z m10025 -44 c77 -61 156 -122 175 -137 48
-37 283 -223 294 -233 6 -5 3 -24 -7 -46 -8 -21 -18 -55 -22 -75 -3 -21 -9
-39 -13 -42 -4 -2 -34 -7 -67 -10 -33 -4 -73 -9 -90 -11 -16 -3 -57 -7 -90
-10 -71 -6 -140 -14 -175 -20 -14 -3 -55 -7 -91 -10 l-66 -6 -28 93 c-15 51
-31 107 -35 123 -5 17 -31 106 -58 200 -28 93 -50 170 -49 171 1 1 29 18 62
37 33 19 71 47 84 61 14 14 27 26 30 26 4 0 69 -50 146 -111z m-665 -39 c0
-24 -122 -624 -129 -632 -3 -3 -31 -9 -61 -12 -30 -4 -68 -8 -85 -10 -16 -3
-61 -7 -100 -11 -38 -4 -73 -9 -77 -11 -4 -3 -16 17 -28 43 -11 26 -32 61 -45
79 l-25 32 138 186 c75 102 173 234 217 294 l80 109 57 -26 c32 -15 57 -33 58
-41z m317 -220 c35 -118 72 -244 84 -279 22 -71 19 -80 -36 -82 -16 -1 -39 -3
-50 -4 -11 -2 -47 -6 -80 -10 -33 -3 -71 -8 -84 -10 -13 -3 -60 -7 -104 -11
-74 -6 -79 -5 -74 12 3 11 10 44 16 74 6 30 14 66 16 80 3 14 7 37 10 52 10
53 76 373 79 383 2 6 38 10 82 10 l78 0 63 -215z m-9705 -20 l186 -114 102
-281 c56 -154 117 -320 135 -370 18 -49 75 -205 125 -345 50 -140 102 -283
116 -318 30 -79 30 -86 -1 -40 -14 20 -25 42 -25 47 0 6 -4 11 -10 11 -5 0
-10 5 -10 10 0 6 -20 43 -44 83 -24 39 -212 361 -419 714 -324 552 -417 721
-417 755 0 9 31 -10 262 -152z m579 -355 c139 -85 254 -156 255 -158 1 -1 -3
-27 -10 -57 -35 -151 38 -314 171 -379 26 -13 49 -25 50 -26 2 -1 -6 -51 -17
-111 -10 -60 -22 -127 -25 -149 -4 -22 -8 -47 -10 -55 -2 -8 -7 -31 -10 -50
-12 -76 -56 -326 -60 -345 -3 -14 -13 -21 -32 -23 -29 -2 -29 -2 -132 286 -57
158 -107 296 -112 307 -5 11 -45 121 -90 245 -44 124 -116 323 -160 443 -81
222 -82 227 -75 227 3 0 118 -70 257 -155z m9724 -14 c-17 -16 -347 -113 -355
-105 -4 5 -10 21 -14 37 -5 23 -3 27 16 28 24 2 28 2 118 13 30 4 73 9 95 11
98 12 130 16 134 21 2 2 7 4 10 4 3 0 1 -4 -4 -9z m-453 -97 l15 -43 -96 -32
c-53 -17 -103 -33 -111 -34 -15 -4 -140 -42 -282 -88 -43 -14 -78 -24 -78 -22
0 1 5 27 11 56 6 30 12 65 15 79 11 66 13 68 51 74 69 10 107 15 178 21 38 4
76 8 85 10 8 2 44 6 80 10 36 4 66 8 67 8 1 1 12 3 25 3 20 1 27 -6 40 -42z
m803 -81 c17 -9 32 -17 34 -19 5 -4 -142 -272 -214 -389 -139 -224 -160 -252
-181 -244 -11 4 -45 6 -76 5 l-56 -1 -72 245 c-39 135 -74 251 -76 258 -2 7 8
17 22 22 14 6 51 22 82 37 31 15 138 64 237 109 l180 82 45 -45 c25 -25 59
-52 75 -60z m-1415 41 c0 -7 -9 -56 -20 -109 -11 -53 -20 -99 -20 -101 0 -2
-30 -12 -66 -23 l-66 -20 -79 51 c-43 27 -79 51 -79 53 0 1 4 15 10 31 5 16
11 44 14 62 2 19 6 35 8 37 2 1 32 5 68 9 121 11 185 18 188 22 9 7 42 -2 42
-12z m860 -29 c0 -5 -103 -55 -113 -55 -4 0 -7 4 -7 9 0 5 26 18 58 29 31 11
58 20 60 21 1 0 2 -1 2 -4z m-205 -85 c0 -7 -58 -39 -130 -72 -71 -33 -204
-93 -293 -135 -189 -86 -219 -90 -207 -25 4 20 10 44 15 52 5 9 85 39 197 73
103 32 235 73 293 92 109 35 125 37 125 15z m58 -193 c14 -45 39 -131 57 -192
18 -60 38 -129 46 -153 8 -23 14 -47 14 -52 0 -5 -21 -24 -47 -42 -27 -18 -55
-41 -64 -52 -18 -22 3 -33 -294 159 -60 39 -148 96 -194 125 l-84 54 44 21
c25 11 89 40 143 65 55 25 154 70 220 101 67 31 124 54 128 52 4 -2 18 -41 31
-86z m-1024 34 c22 -17 20 -18 -103 -55 -69 -21 -130 -35 -135 -31 -13 8 -2
35 14 35 21 0 94 42 123 71 29 29 37 28 101 -20z m-537 19 c13 -10 31 -25 40
-32 15 -12 14 -19 -13 -88 -17 -41 -36 -80 -42 -86 -7 -7 -66 -28 -132 -49
-66 -20 -192 -59 -280 -86 -176 -55 -215 -65 -200 -51 6 5 80 56 165 114 85
58 218 149 295 202 77 53 141 96 142 96 2 0 13 -9 25 -20z m204 -104 c3 -14 3
-29 0 -35 -7 -11 -85 -35 -92 -28 -3 3 3 23 12 46 14 35 21 41 45 41 22 0 30
-6 35 -24z m508 -28 c28 -18 49 -36 48 -40 -1 -5 -2 -16 -2 -25 0 -12 -22 -28
-68 -48 -37 -16 -107 -48 -157 -71 -196 -90 -206 -94 -210 -81 -3 7 -6 52 -7
102 l-3 89 105 32 c58 18 132 41 165 52 79 26 73 27 129 -10z m-7589 -119 c11
-10 74 -61 140 -115 66 -54 125 -103 131 -109 7 -5 31 -26 55 -45 24 -19 57
-47 74 -62 l30 -27 -17 -33 c-32 -59 -48 -120 -48 -174 0 -37 -4 -54 -12 -54
-12 1 -488 708 -488 725 0 4 26 -14 57 -41 32 -27 67 -56 78 -65z m15 -290
c124 -187 228 -347 233 -354 5 -9 -3 -16 -25 -24 -18 -5 -152 -48 -298 -96
-248 -80 -266 -84 -278 -68 -28 40 -79 86 -115 104 -30 16 -36 24 -32 42 4 18
27 148 50 280 10 57 25 143 29 163 2 12 7 39 10 60 3 22 8 50 11 64 2 14 7 39
10 55 13 79 16 85 43 86 15 0 47 6 72 13 25 8 50 14 55 14 6 1 111 -152 235
-339z m7081 279 c0 -13 2 -34 4 -48 1 -14 4 -51 6 -83 l4 -59 -129 -59 c-70
-32 -136 -61 -146 -64 -15 -5 -8 22 41 143 l60 148 67 21 c86 27 92 27 93 1z
m758 -40 c44 -29 120 -78 168 -109 49 -31 147 -95 220 -142 l132 -86 -15 -43
c-24 -66 -25 -157 -2 -220 10 -29 21 -60 24 -68 8 -25 -199 -245 -391 -417
-44 -39 -92 -82 -106 -95 -14 -12 -66 -59 -115 -103 -49 -44 -114 -103 -145
-132 l-55 -52 -38 25 c-20 14 -52 32 -70 39 l-34 14 10 48 c5 26 11 57 13 68
47 226 127 619 131 645 3 19 7 43 10 52 3 10 7 28 9 40 6 30 16 81 54 265 37
184 40 199 47 243 4 31 45 80 66 80 3 0 43 -24 87 -52z m-1097 -184 c-67 -171
-42 -147 -267 -248 -71 -33 -151 -69 -177 -82 l-48 -22 -30 38 -30 37 37 71
c30 58 36 81 36 136 l1 66 141 44 c77 24 196 62 265 83 69 22 126 36 128 33 1
-4 -24 -74 -56 -156z m848 141 c0 -9 -9 -57 -20 -108 -10 -50 -21 -104 -24
-120 -3 -15 -7 -35 -10 -45 -3 -9 -7 -34 -11 -56 -3 -21 -7 -41 -9 -45 -2 -3
-7 -22 -10 -41 -11 -65 -28 -151 -52 -265 -2 -11 -6 -31 -9 -45 -33 -180 -120
-587 -126 -594 -14 -15 -20 -1 -24 51 -2 26 -7 71 -9 98 -3 28 -8 77 -11 110
-3 33 -8 85 -10 115 -3 30 -8 82 -10 115 -3 33 -7 80 -10 105 -3 25 -7 70 -10
100 -13 169 -16 198 -20 230 -2 19 -7 67 -10 107 -4 40 -8 84 -9 98 -3 23 4
29 73 61 42 19 128 59 191 89 130 61 130 61 130 40z m-479 -237 c0 -18 2 -46
3 -63 2 -16 6 -66 10 -110 4 -44 9 -96 11 -115 5 -48 14 -143 20 -215 3 -33 7
-84 10 -112 3 -29 7 -77 10 -105 2 -29 7 -78 10 -108 2 -30 7 -82 10 -115 3
-33 8 -81 11 -107 3 -35 1 -48 -8 -48 -7 0 -42 -14 -78 -31 -54 -25 -66 -28
-75 -16 -10 15 -114 131 -196 222 -25 27 -63 70 -85 94 -21 25 -46 52 -54 61
-8 9 -45 50 -82 91 -65 73 -66 76 -53 105 7 16 50 123 96 238 l84 210 170 77
c94 43 173 78 178 78 4 1 7 -14 8 -31z m-502 -240 c-46 -118 -111 -273 -116
-278 -2 -3 -13 5 -23 18 -10 12 -47 54 -82 93 -35 39 -64 74 -66 77 -1 4 13
14 30 21 28 13 120 54 233 107 45 20 46 18 24 -38z m-904 32 c11 -18 79 -57
126 -73 l44 -15 0 -57 c0 -32 -4 -64 -10 -70 -5 -7 -82 -45 -170 -85 -197 -89
-241 -109 -329 -149 -38 -18 -162 -74 -275 -126 -113 -51 -246 -112 -296 -135
-134 -62 -175 -81 -225 -101 l-45 -19 30 22 c113 86 1130 818 1136 818 4 0 11
-5 14 -10z m455 -83 c0 -5 -176 -87 -188 -87 -5 0 -8 10 -6 23 1 12 3 33 3 46
1 13 4 22 7 18 7 -7 114 29 128 43 7 7 18 2 33 -14 13 -14 23 -27 23 -29z m80
-84 c0 -5 28 -37 61 -73 34 -36 83 -90 109 -120 l48 -55 -105 -260 c-57 -143
-106 -267 -110 -275 -12 -33 -76 -196 -163 -415 -51 -126 -96 -240 -100 -252
-7 -16 -15 -20 -31 -16 l-21 6 7 271 c9 391 13 533 21 786 3 124 6 240 5 257
-2 32 2 34 76 69 43 19 101 46 128 59 52 25 75 30 75 18z m-4813 -160 l362
-138 0 -71 c0 -42 7 -87 17 -112 9 -23 14 -48 11 -56 -6 -14 -11 -14 -112 0
-22 3 -60 8 -85 10 -74 8 -83 12 -130 55 -25 22 -76 68 -114 102 -38 34 -79
71 -90 82 -12 11 -59 54 -106 95 -141 126 -142 127 -135 149 3 12 9 21 13 21
4 0 170 -62 369 -137z m-1022 -34 c120 -181 127 -194 99 -186 -10 3 -44 9 -74
12 -30 4 -62 9 -71 10 -9 2 -40 6 -70 10 -30 3 -81 10 -114 15 -33 5 -82 12
-110 15 -27 3 -61 7 -75 9 -25 4 -99 14 -155 21 -16 2 -50 7 -75 10 -81 10
-85 11 -85 30 0 15 51 35 295 116 162 53 302 97 311 98 11 1 54 -55 124 -160z
m697 -51 c133 -120 191 -172 233 -212 l40 -37 -30 5 c-16 3 -52 8 -80 11 -146
16 -326 42 -330 47 -1 2 -14 48 -30 103 -15 55 -30 105 -32 112 -2 6 11 19 30
28 20 9 43 25 52 35 21 23 18 25 147 -92z m4763 -125 c-3 -120 -8 -276 -10
-348 -2 -71 -7 -251 -10 -400 -4 -148 -8 -285 -9 -304 -1 -33 -4 -35 -51 -46
-80 -20 -120 -41 -182 -99 l-59 -55 -70 38 c-38 20 -118 64 -179 96 -60 32
-132 70 -160 85 -106 58 -294 159 -380 205 -49 26 -113 60 -141 76 l-52 29 15
43 c21 58 25 192 9 254 l-14 51 102 47 c326 150 1191 544 1194 544 2 1 0 -97
-3 -216z m-5221 142 c28 -7 72 -10 96 -8 l45 4 24 -91 c13 -50 22 -93 20 -95
-10 -9 -182 24 -190 36 -4 8 -13 21 -19 29 -21 29 -120 183 -120 186 0 1 21
-9 46 -23 26 -15 70 -32 98 -38z m6017 -246 c36 -41 81 -92 100 -114 19 -22
43 -49 54 -60 11 -11 55 -60 98 -108 76 -87 78 -89 63 -113 -9 -13 -23 -34
-31 -47 -46 -71 -64 -197 -40 -286 12 -46 12 -52 -3 -60 -10 -5 -84 -43 -167
-86 -82 -43 -186 -96 -230 -120 -44 -23 -130 -68 -192 -100 l-112 -57 -51 50
c-29 28 -61 54 -71 57 -10 4 -19 10 -19 14 0 8 31 90 51 136 8 19 292 736 375
948 l38 97 36 -39 c19 -21 65 -71 101 -112z m-6916 107 c28 -4 64 -9 80 -11
17 -3 84 -12 150 -20 66 -9 131 -18 145 -20 14 -2 63 -9 110 -15 127 -16 162
-21 190 -25 14 -2 48 -6 75 -9 105 -13 90 2 268 -266 92 -137 162 -252 157
-255 -6 -4 -247 114 -538 261 -290 147 -568 288 -619 313 -51 24 -90 48 -87
53 3 5 8 6 12 4 4 -2 30 -7 57 -10z m1116 -154 c4 -4 23 -65 43 -137 20 -71
40 -145 46 -164 13 -46 10 -42 -120 153 l-112 169 69 -8 c37 -4 71 -10 74 -13z
m1859 -62 c135 -36 415 -111 430 -115 94 -23 140 -35 165 -44 27 -10 26 -10
-15 -6 -103 11 -140 16 -240 30 -126 17 -182 24 -235 31 -22 3 -105 14 -185
25 -80 11 -161 22 -180 24 -19 3 -52 8 -73 11 l-37 6 25 30 c14 17 32 43 40
58 l14 27 108 -28 c59 -16 142 -38 183 -49z m-1629 36 c57 -8 124 -17 149 -20
25 -3 59 -8 75 -11 17 -3 48 -7 71 -9 97 -10 119 -19 168 -66 l48 -47 -183
-135 -184 -135 -40 23 c-22 12 -59 25 -82 29 -27 4 -44 13 -47 23 -3 9 -26 89
-51 177 -25 88 -47 166 -50 173 -6 15 -1 15 126 -2z m-312 -484 l95 -49 -3
-50 c-4 -87 45 -167 126 -203 84 -37 170 -22 238 43 l44 42 588 -195 588 -195
1 -35 c1 -63 16 -134 32 -165 29 -52 75 -107 106 -127 l31 -20 -35 7 c-19 3
-46 9 -60 11 -70 13 -284 71 -430 115 -473 145 -915 343 -1359 609 -253 152
-687 474 -871 647 -19 18 -38 33 -42 33 -5 0 -8 4 -8 9 0 8 627 -304 959 -477z
m911 398 c0 -5 -4 -10 -10 -10 -5 0 -10 5 -10 10 0 6 5 10 10 10 6 0 10 -4 10
-10z m220 -24 c19 -2 57 -14 85 -27 52 -23 147 -33 194 -19 16 4 33 5 38 1 5
-3 91 -169 192 -369 149 -297 179 -363 166 -369 -11 -3 -30 7 -53 29 -20 19
-59 55 -86 79 -27 24 -57 51 -66 59 -9 8 -56 51 -106 94 -49 44 -94 85 -99 90
-6 6 -51 47 -100 91 -50 44 -95 85 -101 90 -79 72 -175 157 -198 177 l-29 24
43 32 c28 20 51 30 64 27 12 -3 37 -7 56 -9z m535 -71 c28 -3 61 -8 75 -10 14
-2 63 -9 110 -15 47 -6 102 -13 122 -16 21 -3 50 -6 65 -8 49 -7 197 -27 223
-31 55 -8 107 -15 155 -20 28 -3 61 -7 75 -10 14 -2 48 -7 75 -10 28 -3 61 -8
75 -10 14 -2 63 -9 110 -15 47 -7 86 -12 87 -13 0 -1 4 -27 7 -58 3 -31 15
-82 26 -114 11 -32 19 -59 18 -60 -2 -1 -133 -80 -293 -175 -159 -95 -299
-180 -311 -187 -19 -12 -25 -10 -55 17 -79 72 -218 110 -298 82 l-31 -11 -170
340 c-165 329 -170 341 -143 335 15 -3 51 -8 78 -11z m-741 -61 c17 -15 68
-60 113 -102 46 -41 91 -82 102 -91 28 -25 177 -158 240 -216 31 -27 61 -54
67 -60 142 -125 284 -256 284 -264 -1 -37 -22 -32 -612 165 -582 193 -595 198
-595 223 0 14 -3 42 -6 61 l-7 35 140 100 c141 100 174 125 214 157 27 22 23
22 60 -8z m2921 -444 c3 0 44 -22 92 -48 49 -27 138 -75 198 -107 61 -32 133
-70 160 -85 28 -15 91 -49 140 -75 50 -27 125 -68 167 -91 43 -23 87 -46 99
-49 15 -5 19 -12 15 -28 -3 -12 -6 -33 -6 -45 l0 -24 -137 7 c-76 3 -171 8
-211 10 -40 2 -133 7 -205 10 -73 3 -168 8 -212 10 -44 2 -138 7 -210 10 -71
3 -161 7 -200 10 -38 2 -131 7 -205 10 -74 3 -171 8 -215 10 -44 2 -138 7
-210 10 -71 4 -155 8 -185 10 -97 6 -354 18 -371 17 -11 0 -19 15 -28 50 -6
28 -10 52 -9 53 2 1 122 73 268 160 146 87 285 171 309 187 l45 28 55 -55
c195 -197 517 -190 702 16 l51 57 50 -29 c27 -16 51 -29 53 -29z m-1140 -545
c39 -2 129 -6 200 -9 72 -4 166 -8 210 -11 44 -3 132 -7 195 -10 138 -6 282
-13 405 -20 95 -4 306 -15 415 -20 177 -8 351 -17 400 -20 30 -2 82 -4 115 -5
51 -1 56 -3 35 -11 -26 -11 -266 -73 -348 -89 -175 -37 -276 -56 -352 -66 -25
-3 -47 -8 -50 -9 -3 -2 -37 -7 -75 -10 -38 -4 -76 -8 -85 -10 -13 -3 -70 -9
-185 -20 -250 -25 -900 -25 -1031 -1 -10 2 -57 7 -104 10 -47 4 -92 9 -100 11
-8 2 -40 6 -70 10 -54 5 -67 7 -145 21 -22 3 -48 7 -57 7 -25 2 -9 12 39 26
85 24 183 126 199 210 l7 33 156 -6 c86 -4 188 -9 226 -11z"/>
</g>
</svg>
